<mxfile host="65bd71144e">
    <diagram id="0tmS47P77ek5C62ZnIjc" name="Page-1">
        <mxGraphModel dx="1419" dy="741" grid="0" gridSize="10" guides="1" tooltips="1" connect="1" arrows="1" fold="1" page="0" pageScale="1" pageWidth="850" pageHeight="1100" background="#FFFFFF" math="0" shadow="0">
            <root>
                <mxCell id="0"/>
                <mxCell id="1" parent="0"/>
                <mxCell id="91" value="" style="shape=image;verticalLabelPosition=bottom;labelBackgroundColor=default;verticalAlign=top;aspect=fixed;imageAspect=0;image=data:image/png,iVBORw0KGgoAAAANSUhEUgAABUYAAAMfCAYAAAAaEA1kAAAC9HpUWHRSYXcgcHJvZmlsZSB0eXBlIGV4aWYAAHja7ZZRsusmDIbfWUWXgCSExHIwmJnuoMvvL+ykNznnPqR96syBMVJACFkf4KTzrz9X+gOFauZU1Ly2WjNKaaVxh+L5Kn23lMtudyk169370p9oZdkaoyu061f2ekl69N8THpI6NP3FkY974HgdaOWS7G+O+BISEYU+b0ftdiR8DdDtoF+vlWtz+/UVjvOS9/wrDXhSNDxus9v4/XcxZG8q1hHmU0gyWhG+ApB4SpK+lY4HI2EEXcTQFqHbGRLyXZ6epSGiFaGWb41eqDy1N1rN7hy90yp8m8hbkutTftufSN8G5Lk+v+wfvzV+7V+yfyGit+zHs9b0td8Zb9FLRarr/VKPV9wa7A4sEUt7Qmg1W4796pBRG6pjVw9shZlHPlAHNWKQWFRoUqdF55aDBkIsfCY2KMyDZXe6GDceEvxKVFps0mSKg+vY2IvwMxbay7Y80l7NsfIkmDLBGWHKxzV9OmGtOApEkUugp4svcyQbYQS5aGEGBjjIV1J1J/hR30twDWYaWY4j0pDY43JxKP1zE8gGLTBUyOsMks3bAVKEpRXBkIAAqJEoVcrGbERIpANQR+g4QHyAAKnyRJBcRCrYOMfSmGK0TVkZ3Qn9uMxAQqXihDkIdcAqRbF/rDj2UFfRoqpVTV2b9iq1VK21Wo1LsZtYSaZWzcytWXfx4urVzd2b98ZNcGlqq82at9Z6x5odnjtmdxj0fvAhRzk0HfWww4929IHtM8rQUYcNH230yVMm7o9Zp02fbfaTTmyls5x61tNOP9vZF7bakrTK0lWXLV9t9Se1G+uX+gE1uqnxJhWG9qSGXrOHC4rrRIMZgOErQiBugQAbmoNZdiqFg1wwyw03nigjSA1mk4IYCJaTWBc92CW+iAa5/8QtWXnhxv+WXAp0H5L7yu07ajM+Q2MTu05hJDULTh/GT+/sPT52X2T63cCn8sfRj6MfRz+O/h+OFm7M+Ov7N7g966GaQ38iAAABgmlDQ1BJQ0MgcHJvZmlsZQAAeJx9kU0oRFEYhh8XkUaUKZLFXWBlSkiWGiJFaWaUwcK9d8xQc+9M945sLJWtsvCz8bewsWZrYauU8lOytrAiNtL1nZmpmWScOp2n95z37fu+A9ph2rK9ml6wnZwbGQ/rs/E5ve4FjVaaAd2wvOxUdCxGxfV5R5U6b0Mqq/K7P1djYsmzoEoXHraybk54UXhwLZdVvCsctJaNhPCZcI8rBQo/KN0s8KviVJ41lRl0Y5ER4aCqP1XGZhlby64tPCDcmbAdyddmC5xQvK7YTq9axTpVh4ElZyaqdNkdjDPBFNPomKyyQpocITkdUTwich+u4G/P+6fFZYprBUsco2SwMfJ+1B/8nq2X7O8rJAXCUPvs++9dULcN31u+/3Xk+9/HUP0El07JnzmEoQ/Rt0pa5wE0bcD5VUkzd+BiE9oes4Zr5KVq2VoyCW+n8k1xaLmBhvnC3Ir3nNxDTGY1eQ17+9CdkuyFCn3Xl8/t3zfF+f0ASstyl20UecgAAA12aVRYdFhNTDpjb20uYWRvYmUueG1wAAAAAAA8P3hwYWNrZXQgYmVnaW49Iu+7vyIgaWQ9Ilc1TTBNcENlaGlIenJlU3pOVGN6a2M5ZCI/Pgo8eDp4bXBtZXRhIHhtbG5zOng9ImFkb2JlOm5zOm1ldGEvIiB4OnhtcHRrPSJYTVAgQ29yZSA0LjQuMC1FeGl2MiI+CiA8cmRmOlJERiB4bWxuczpyZGY9Imh0dHA6Ly93d3cudzMub3JnLzE5OTkvMDIvMjItcmRmLXN5bnRheC1ucyMiPgogIDxyZGY6RGVzY3JpcHRpb24gcmRmOmFib3V0PSIiCiAgICB4bWxuczp4bXBNTT0iaHR0cDovL25zLmFkb2JlLmNvbS94YXAvMS4wL21tLyIKICAgIHhtbG5zOnN0RXZ0PSJodHRwOi8vbnMuYWRvYmUuY29tL3hhcC8xLjAvc1R5cGUvUmVzb3VyY2VFdmVudCMiCiAgICB4bWxuczpkYz0iaHR0cDovL3B1cmwub3JnL2RjL2VsZW1lbnRzLzEuMS8iCiAgICB4bWxuczpHSU1QPSJodHRwOi8vd3d3LmdpbXAub3JnL3htcC8iCiAgICB4bWxuczp0aWZmPSJodHRwOi8vbnMuYWRvYmUuY29tL3RpZmYvMS4wLyIKICAgIHhtbG5zOnhtcD0iaHR0cDovL25zLmFkb2JlLmNvbS94YXAvMS4wLyIKICAgeG1wTU06RG9jdW1lbnRJRD0iZ2ltcDpkb2NpZDpnaW1wOjVjNDJhMjE3LTIzZDMtNDQ1ZC04NTFkLTRmMzBjZGE4NmMyYyIKICAgeG1wTU06SW5zdGFuY2VJRD0ieG1wLmlpZDozN2FmOWNmNC04NTg4LTQwODEtYjdkZS1hMmQ2NjRjZmZlZGEiCiAgIHhtcE1NOk9yaWdpbmFsRG9jdW1lbnRJRD0ieG1wLmRpZDo3MTE2ZDNjNC02ZWFlLTQzZmEtYTBjNy05MjU4MDk3MjJhNDUiCiAgIGRjOkZvcm1hdD0iaW1hZ2UvcG5nIgogICBHSU1QOkFQST0iMi4wIgogICBHSU1QOlBsYXRmb3JtPSJXaW5kb3dzIgogICBHSU1QOlRpbWVTdGFtcD0iMTcwODcwNjI2MjE2ODYyNCIKICAgR0lNUDpWZXJzaW9uPSIyLjEwLjMyIgogICB0aWZmOk9yaWVudGF0aW9uPSIxIgogICB4bXA6Q3JlYXRvclRvb2w9IkdJTVAgMi4xMCIKICAgeG1wOk1ldGFkYXRhRGF0ZT0iMjAyNDowMjoyM1QxMDozNzo0MS0wNjowMCIKICAgeG1wOk1vZGlmeURhdGU9IjIwMjQ6MDI6MjNUMTA6Mzc6NDEtMDY6MDAiPgogICA8eG1wTU06SGlzdG9yeT4KICAgIDxyZGY6U2VxPgogICAgIDxyZGY6bGkKICAgICAgc3RFdnQ6YWN0aW9uPSJzYXZlZCIKICAgICAgc3RFdnQ6Y2hhbmdlZD0iLyIKICAgICAgc3RFdnQ6aW5zdGFuY2VJRD0ieG1wLmlpZDowMzZmOTg3Ny03ZDlhLTRlNWMtOTNhZC0yNTY5ZjlhNTNlNTAiCiAgICAgIHN0RXZ0OnNvZnR3YXJlQWdlbnQ9IkdpbXAgMi4xMCAoV2luZG93cykiCiAgICAgIHN0RXZ0OndoZW49IjIwMjQtMDItMjNUMTA6Mzc6NDIiLz4KICAgIDwvcmRmOlNlcT4KICAgPC94bXBNTTpIaXN0b3J5PgogIDwvcmRmOkRlc2NyaXB0aW9uPgogPC9yZGY6UkRGPgo8L3g6eG1wbWV0YT4KICAgICAgICAgICAgICAgICAgICAgICAgICAgICAgICAgICAgICAgICAgICAgICAgICAgICAgICAgICAgICAgICAgICAgICAgICAgICAgICAgICAgICAgICAgICAgICAgICAgIAogICAgICAgICAgICAgICAgICAgICAgICAgICAgICAgICAgICAgICAgICAgICAgICAgICAgICAgICAgICAgICAgICAgICAgICAgICAgICAgICAgICAgICAgICAgICAgICAgICAgCiAgICAgICAgICAgICAgICAgICAgICAgICAgICAgICAgICAgICAgICAgICAgICAgICAgICAgICAgICAgICAgICAgICAgICAgICAgICAgICAgICAgICAgICAgICAgICAgICAgICAKICAgICAgICAgICAgICAgICAgICAgICAgICAgICAgICAgICAgICAgICAgICAgICAgICAgICAgICAgICAgICAgICAgICAgICAgICAgICAgICAgICAgICAgICAgICAgICAgICAgIAogICAgICAgICAgICAgICAgICAgICAgICAgICAgICAgICAgICAgICAgICAgICAgICAgICAgICAgICAgICAgICAgICAgICAgICAgICAgICAgICAgICAgICAgICAgICAgICAgICAgCiAgICAgICAgICAgICAgICAgICAgICAgICAgICAgICAgICAgICAgICAgICAgICAgICAgICAgICAgICAgICAgICAgICAgICAgICAgICAgICAgICAgICAgICAgICAgICAgICAgICAKICAgICAgICAgICAgICAgICAgICAgICAgICAgICAgICAgICAgICAgICAgICAgICAgICAgICAgICAgICAgICAgICAgICAgICAgICAgICAgICAgICAgICAgICAgICAgICAgICAgIAogICAgICAgICAgICAgICAgICAgICAgICAgICAgICAgICAgICAgICAgICAgICAgICAgICAgICAgICAgICAgICAgICAgICAgICAgICAgICAgICAgICAgICAgICAgICAgICAgICAgCiAgICAgICAgICAgICAgICAgICAgICAgICAgICAgICAgICAgICAgICAgICAgICAgICAgICAgICAgICAgICAgICAgICAgICAgICAgICAgICAgICAgICAgICAgICAgICAgICAgICAKICAgICAgICAgICAgICAgICAgICAgICAgICAgICAgICAgICAgICAgICAgICAgICAgICAgICAgICAgICAgICAgICAgICAgICAgICAgICAgICAgICAgICAgICAgICAgICAgICAgIAogICAgICAgICAgICAgICAgICAgICAgICAgICAgICAgICAgICAgICAgICAgICAgICAgICAgICAgICAgICAgICAgICAgICAgICAgICAgICAgICAgICAgICAgICAgICAgICAgICAgCiAgICAgICAgICAgICAgICAgICAgICAgICAgICAgICAgICAgICAgICAgICAgICAgICAgICAgICAgICAgICAgICAgICAgICAgICAgICAgICAgICAgICAgICAgICAgICAgICAgICAKICAgICAgICAgICAgICAgICAgICAgICAgICAgICAgICAgICAgICAgICAgICAgICAgICAgICAgICAgICAgICAgICAgICAgICAgICAgICAgICAgICAgICAgICAgICAgICAgICAgIAogICAgICAgICAgICAgICAgICAgICAgICAgICAgICAgICAgICAgICAgICAgICAgICAgICAgICAgICAgICAgICAgICAgICAgICAgICAgICAgICAgICAgICAgICAgICAgICAgICAgCiAgICAgICAgICAgICAgICAgICAgICAgICAgICAgICAgICAgICAgICAgICAgICAgICAgICAgICAgICAgICAgICAgICAgICAgICAgICAgICAgICAgICAgICAgICAgICAgICAgICAKICAgICAgICAgICAgICAgICAgICAgICAgICAgICAgICAgICAgICAgICAgICAgICAgICAgICAgICAgICAgICAgICAgICAgICAgICAgICAgICAgICAgICAgICAgICAgICAgICAgIAogICAgICAgICAgICAgICAgICAgICAgICAgICAgICAgICAgICAgICAgICAgICAgICAgICAgICAgICAgICAgICAgICAgICAgICAgICAgICAgICAgICAgICAgICAgICAgICAgICAgCiAgICAgICAgICAgICAgICAgICAgICAgICAgICAgICAgICAgICAgICAgICAgICAgICAgICAgICAgICAgICAgICAgICAgICAgICAgICAgICAgICAgICAgICAgICAgICAgICAgICAKICAgICAgICAgICAgICAgICAgICAgICAgICAgICAgICAgICAgICAgICAgICAgICAgICAgICAgICAgICAgICAgICAgICAgICAgICAgICAgICAgICAgICAgICAgICAgICAgICAgIAogICAgICAgICAgICAgICAgICAgICAgICAgICAgICAgICAgICAgICAgICAgICAgICAgICAgICAgICAgICAgICAgICAgICAgICAgICAgICAgICAgICAgICAgICAgICAgICAgICAgCiAgICAgICAgICAgICAgICAgICAgICAgICAgIAo8P3hwYWNrZXQgZW5kPSJ3Ij8+3RmLPQAAAAZiS0dEAAAAAAAA+UO7fwAAAAlwSFlzAAAuIwAALiMBeKU/dgAAAAd0SU1FB+gCFxAlKTeq5PIAACAASURBVHja7N1PjCPJ2ef3nxZ63z20gKF2F7ML+zA5PtgG/A6Gc9Nh152NAXzUcI4Dw1A2oHtzrjKMzr7oypm7AJZOOrLlu5Zs2AZeLAywxq8urwEvKcAwvNoFqsb7CgZer90+MEIZzMokk2T+iYj8fgCiZrqrq5LJyIwnnnwiQgIAAAAAAAAAAAAAAAAAAAAAAAAAAAAAAAAAAAAAAAAAAAAAAAAAAAAAAAAAAAAAAAAAAAAAAAAAAAAAAAAAAAAAAAAAAAAAAAAAAAAAAAAAAAAAAAAAAAAAAAAAAAAAAAAAAAAAAAAAAAAAAAAAAAAAAAAAAAAAAAAAAAAAAAAAAAAAAAAAAAAAAAAAAAAAAAAAAAAAAAAAAAAAAAAAAAAAAAAAAAAAAAAAAAAAAAAAAAAAAAAAAAAAAAAAAAAAAAAAAAAAAAAAAAAAAAAAAAAAAAAAAAAAAAAAAAAAAAAAAAAAAAAAAAAAAAAAAAAAAAAAAAAAAAAAAAAAAAAAAAAAAAAAAAAAAAAAAAAAAAAAAAAAAAAAAAAAAAAAAAAAAAAAAAAAAAAAAAAAAAAAAAAAAAAAAAAAAAAAAAAAAAAAAAAAAAAAAAAAAAAAAAAAAAAAAAAAAAAAAAAAAAAAAAAAAAAAAAAAAAAAAAAAAAAAAAAAAAAAAAAAAAAAAAAAAAAAAAAAAAAAAAAAAAAAAAAAAAAAAAAAAAAAAAAAAAAAAAAAAAAAAAAAAAAAAAAAAAAAAAAAAAAAAAAAAAAAAAAAAAAAAAAAAAAAAAAAAAAAAAAAAAAAAAAAAAAAAAAAAAAAAAAAAAAAAAAAAAAAAAAAAAAAAAAAAAAAAAAAAAAAAAAAAAAAAAAAAAAAAAAAAAAAAAAAAAAAAAAAAAAAAAAAAAAAAAAAAAAAAAAAAAAAAAAAAAAAAAAAAAAAAAAAAAAAAAAAAAAAAAAAAAAAAAAAAAAAAAAAAAAAAAAwKj/gFAAAAAAI0ERSKmkq6SNJSenv/29Jv5P0v0jaSvq/JP19R8fyI0k/lPTejLH+TtJ/4CMCAMBvJEYBAAAAhCKRNJP0Mx0Sok38vaS98/pbSb+X9O8l/dH8/d9L+n9K46QfmtdfSvqHkv4/HZKr/0HSvyv9jv9O0n+hQ2L0R5J+Ielv+LgAAPDbDzkFAAAAADyXSnqlQ1LUdS9pI+kP5r+r/t0HOiRR/yvzZ38v6f9wvkpFsvMHOiQ3/0LSPzZ/95eS/iPna/n3P5qfP3H+/N+ZY7I25utjzXECAIABUDEKNDPRcVVC2uDfPL/yd91L+v6C79+bV93PeuTjAwAAgZpKWpRir7eSfmu+XhPnJHo67f6cVEWC9Zp/Xxe/2bhvY/58w0cOAEB/SIwCB5NSoGsD33JCNAabUlBuqxlsEpVkKgAA8CE2ey1p7vzZnaQ3qn8gPITUfF2UYsY7J8Zy1z8tV5bWsfGYG6ttnPhtTxMBAOB2JEYxxiB7aoJYG6SmDf/tphSsnqvqvCbBeE0i9tMTAXZ65Xnam/fr2+ADAADEL5W0VJFMfCvpa89jknUp7nqh09WfqRP32Zj00jhw77z+4Pz3hiYEAEAzJEYRu0SHtag+NQFocuJ7bRD5rvT/MQWX5YDbVi3UVcg+6pAc/YamBAAAepDrUCkqHZJ8LwOJxS5NjDaN18qxmtTswfdeh4f035njYEYQAADASMx0qDLY6bB4fvm1Nn8/V/G0Hk/P4do5Z0tOCQAA6NBE0qoUe4QUo61L8Wbaw++0s6DmOiSU15K2NfHve3N+U5oaAABAfKYmgH4oBYAPJgicEwheZS6SowAAoFsTFQm9B0lZgO9hiMToKak5jws9TZaudfvmUQAAAPAgiM70tDJ0p6e7l+J6mXNuM04HAABomU0qPijcTS99S4yWJTo85HaLB2Y0PQAAgPBMdJgu9FAK7paKbwd5X+TOeWbpAQAA0EWMEXIc53ti1Ep0XEGa0QQBAADCMddxQnRnAjqSdd2zQXTOqQAAAC1IFE+CLpTEqLUUyVEAAIBgTHU8ZX5HENe7mYqKDgAAgFstVKx5GbrQEqMSyVEAAIAgZDqeMk/gNpxdQME+AAAII66IYa3LEBOj0nFydCFmYQEAAHglc4K1FcGaN8FzzqkAAAA3mCqumSgLHZKj9jUN7NhtvL0VO9YDAAB4YeYEaUtOhxcyxTPlDQAADB/nEVP4IVWxjn/oG2EBAAAEb+IEZyRF/QqaGcQAAIBb5Sqmb8MPiYrNNh/ETC0AAIDB2CnbW06FdwEzGzABAIBb5WJ5Hh9NVCRHeRAOAAAwgEThLVw/pmDZfjYAAADXykVi1FdTFTO3Mk4HACBmP+QUwEOvzNeNecGvQFl8LgAA4AJpxZ995HxNT3z/R3q6GVCi0xsEnYpT3lX82b2kx9KfPZo/H6N7SW90WObgtaQ7mjAAIFY/4BTAQ1sdEnBfSnrL6RjEVNXrSk1NkHwv6Vu1s2vp5sSgBAAA+CM18cFU0gcqHphOxGY9jyam+a4U1+zNK0Q7E+u9FMlRAECkSIzCN3bTJUn6sUiUldUlLNOa739+4jz7OoCxA4lHZ3DhDipIoAIA0F7cNa2JM9xKzbSlvv2S7//e/Hdd5ebmihin7u+q4qVE7TwAVsX7eFcR8/hYnbqQNNchKfqSywUAECMSo/BNqsNC7/eSPovk/ZwLyD+o+LOhE5d7na9ucBOX17p10LUpDaDscZM8BQCMnY0lEvP61PzZLTGG7V9tv+v2t5uRn++pc77d2C698hz78IA4trgcAIAnSIzCNzNJKxNcvxj4WNIz/28HGJYdeHTJDYzLQfT3F3y/zwOYtOJ8Pj/xOdSxA7d7M7Cw/w0AQGxssjM18cn0gphkU4ob/lDqR22cwQPH29hqXDcx/fzGGNJ+du9UPBhuO9Z5z7gRABAzOjj4Jtdhkfc3am+XUndamPvf5UrNumnqt9jraWLy3ZlBiRiENOIOIlJngHGqEsYO8t6Jzb0AAGH3ganp96Yn+r17E4d8p+NEJ/2fn9wYxo1zLn1AvFF7D4ZJjAIAokYHB9/YtYyaJEbLU8TcRGcbSc5yYrJclbnXcdJzzLuX+jpotIPF5yfaxEbSb51BBAAAPvZpqenPUlVXF9oE2DsxS2IMynHwc52uPC0vg+DGspsTv4fEKAAganRw8M3aBPzlHekTFUmuS6eI2aBPerou5qbm+zDOgeWjaXfvzFcqdgEAQ0klfWG+VlWEblTMgGCWCaxrl1V4q8ODYjf+SXTYmZ5xIwAgWnRw8I1NjL4x/3+q0k/OQOCdM0iQqN5EM4mKROmsop25SdI9pwsA0KGJ6Yvq+qSNWAoG10tLX6VD4jTR08S7W3GcyY+1/wEAAKKUmOB/oUNS9P2J19p8X6Zhd2xHvKamjW0r2t9Wh2UeEk4TAKAlExPXrCr6nZ2kpaqTpEDb8fi8Jv6pi8WJhwAAAK6Q6rB26FrSQ03Q9WD+PjeDAQIvDDlIqBqsbs2ggIEqAOAaMx2Sng8V/UsuHgBjOBMnXl/qdOEC7RUAAOBMYGWrQU89gSYJihDacqbqJOlSzXaIBQCMW2LinZ2eVoYyIwEhtN+ZigKHqsKGlWnLJEoBAMBonUuEbnVIJGUETQjURNXTzezAlipSAIAr1dMHaw8mXiIWQsjxUKbqymcSpQAAYDQS1U83tonQhVgfC3Gya5I+lAYCuaj8AYCxy/S0OnRtYiIgxpjIjgnOJUqJkQAAQPCBT67qqtCdSIRifCY1A+AlwT8AjK4/mJf6A1sdSn+AsY0XTiVK7ZiBalIAABCExAQvu4rAhqe/QCHV07W3FuJBAQDEbq7jBBBLrAAFN1FalSRlLAEAALxTt5big4p1Qgn2gWqpjhOkdoo9ACAumY4fHO/MnwGoN1P1+qQrrh8AAOBDoFL1NJdABbhcquOHCzuxiz0AxHp/J04CLmOXIyrPtmEJCgAA0HtQkuvpVPmtqAwF2pDpuCpixXUFAMHGTEsxIwBoW1IzHlmLhw4AAKAj01JwzxNaoNvB9KJ0rc05LQAQjPI6okvxkAvowqxijLLTIXHKNQcAAFoJNspTVngaC/RjquPpl2uCfADwWlKKm7ZiN22gD1Wz2ux+BwmnBwAAXCrT0+kpS4J7YBB5KcifcUoAwMvY6UFU+gM+XIvrinFMwqkBAADnpHr6pDUnkAAGV64eXYjqUQDwwUTHm1GuiZsAb8Y1JEgBAEAjSSlwsAlREi+AX9y1R7cE9wAwqKmOHyjnnBLAO6meJkh5wAwAAP4sLwUKOYEC4H2A707XTDklANC7zLkX78RyQ0AI8VNVIQgAABhxcOBWOTD1CwhHouOp9RmnBAB6sxAb4wEhj4HcGGonHjIDADAqk1JAz2YuQLjX8lLH62YBALrl3ncXnA4gWJmKqu/3OqwVnHBaAACI26wUACxFlQMQurlIjgJA1yaiUh+I8bouF4zMOS0AAMQn0fGaOkwZAeKS6XhTJh54AEB73KQoazsD8Znq+MEHS4wBABCRXMdVojmnBIhS6lzrJEcBoB3lpCibLAHxmut4g0uqRwEACFgqNlcCxmYqkqMA0BaSosD4JDqeaccYCgCAAIP4lY7Xysk4LcBouMnRNacDAK6Op0iKAuNVrh5ls1oAAAIL4u1uqVSMAePjJkfZkAkAro+nSIoC446nymMrAADgccf9QBAPwEjFbvUAcI0l8RQAh7tz/VoUngAA4J2ZjtcVTDglAHS8W33G6QCAs5bOfZOkKAA3pnLHW9wfAADwqJPmCSaAOjmDfAC4OKbKOB0ASpihBwCAZ9yqBqbKAjh3r3gQD08AoMrUialyTgeAGuU1iDNOCQAAw1gSwAO4Iohnp3oAeHqP3Jl75IrTAaDBPWMlKswBABisI17TEQO4kDv9K+d0AMCf2QTHTlTVA2huyZgMAIB+laduzDglAC6QifVGAcA1c+6LKacDwIXc5OiC0wEAQHfKSVGSGgCuYSujtpwKAMRWVNIDuFku9n0AAKBTUxVrX5EUBUAiAABux4MiAG3JRHIUAIBOuOsCbiUlnBIAN3KnjvKgBcAYpdwHAbQsE8lRAABaVU6KsiEAgLbYSil2qQcwRnYmDmsCAmhTJpKjAAC0gqQogC4lzj2GjdwAjEmuYnki4isAbctUJEfnnA4AAC5HUhRAn8mBHacCwEi46yxnnA4AHclUJEe51wAAcAGSogCGSBBQ0QBgDJZiGREA/ViI5CgAABchKQqgb5mYUgpgHBIVSYqU0wGgB0uRHAUAoBGSogCGshWbkACI31psiAKgfzY5+mDGfAAAoISkKIAhpSqqGRJOBwDucwDQqpVIjgIAUGmiw8YnJEUBDMlWUrHuHoCY73FUiwIYasxnZ+jsGPMBAPC0gyQpCmBIiVh7D0CcZmItZQCM/QAA8M5WTKkA4I9cRSUDAMTCzszJORUABuYuoUYFOwBg1FiEG4Bv3KU9ck4HgAhkoloUgF+mKmbpEG8BAEZp5nSGM04HAE/vTwmnA0DgeNgDwEcZ40EAwFhNVEyfIEgH4CM2YgIQg7moFgXgL2YQAgBGaaViwW0A8FGi4gHOnNMBIEDug+iM0wHAU2zGBAAYlUzFlAmeCgLwmVtplXA6AASGB9EAQuA+xGEzJgBA1BIxhR5AWJhSDyBE9sEOD6IBhCB17lkZpwMAECubYKByAUAoEvFAB0BYpty3AAQoFzN1AAARc6ekUrkAICSZiiqGlNMBwHN2vT4q3QGEhkIaAECUErGJCYCwubumsjEAAO5VANDtuDHndAAAYsEafQBCN9HxrqkA4JtMRXX7jNMBIFAzsUYyACAi7OoMIBbuun3smgrAJ6mKRELO6QAQuJV4GA0AiEAiptADiItbxcB9DYAPeGgDIDYTMaUeALzyA07BVdY6VDBsJL3gdIwyoLlk+kuiy6uKNw3/DGhTpiL58FLSHacEwECmJt6aSLqX9BmnBB1LW4jfHk17PWdvXhinmQ6VozL3tntOCQAMh8To5eaSFibw+YygJvoA2SZBPzVfE0+O7d60QUl6V/oz9++ASy11SJBKJEcBDKOcFH1Bv4Yb4zn366embV36oLtLe+f1B9Pu9yJhFrOVDgnSjSi0AYBBkRi9TKLDejATSV9L+oZTEvzn6b4+dYLkczveXpJ8fJT03QXH9UFFoH5N8L5xAuyNqE5AcyRHAQyFpCiukVbEc+mFP6Mc210av0nSR2r2ED298Lj25liI5xhXAgBaRmL0MkyhDzfwmKqo/LT/3zRAfucEoRuPBgByBgE2mXougWorSt+Z97KheaAGyVEAfct0mJVDUhSn2JjuufPfTeK5vQ4Pi21MJ4/iIDeG+0jFLKXkRDy3UZEsJZ4LkzsT8WPudwCAEDoudqEPQ6rDYuZrFYub173WOkxlyc1nnEby+SbmvdiAa33mHOTyZzoZ/LEUu0ED6Efm3G9WOj9zA+MyM33SriaW2TnxTBZRPKcL4rmt+Z4Z109QtmKDOQBAANzdA9mt2e+AuSoR+mACyYWK5OdYA8apig12djUDi6U5n4DMdfPeCdoZbAFo27J0nwFOxXYPKh5qjzWmc+O5rc4nSuGv1PnMUk4HAMD3gH3LqfBGokOSc6X65F4mqnubnMfszMCD84isNNCiuhhAGyY6roDj4TMxSWZij4eK2G4hEkenrqWZOUd1idK1ucbow/0da645FQAAH6XiKZ4vAV+m05WOC4K9m9mguuocbxmUjP5eaAeqDyKBAeA2UxUJnAcVaxpjPBJiu07j5lOJUntuqSb15/OyMRb3QgCAd2wlA1O7hhk05ap/8r3SITmTcKo6O/9z1a9nxfkfZ+Dutoc1nz+AK8ycJMBOJL7GJBVVjUNIVF+N+yCWUfJB7twTWbYIAOCNzAkY6KD6C9xOVSzmomJxCLbyYKnT1aQMZMYVvFM9CuCW+8ea+GoUTq0Dvya2G+wzqYq3SZIOy34eOacCAEDnNM4AbV0TnGUMnLyT6PQar7moJIzdtHTN7hjYAjhzz3CrBBeckug/74Wq1wq1iTdiO78+q6okKQ+9+5WJohwAAB3T6KQVgdhKPKkOiVtNWh4ArUViO3bz0ue+FglSAMd9xELHyRb6+Hg/60xPp8mTYAtHXZJ0SzzXG/vQmYdHAIDBAzsWwO7+HK9KQXMuqgxjkOlpJakdFPH5xns953qaFCf5AYxXYu4L7oOTlUisxPpZVz0cZUp22OxD76rZXCS5u5M655u4GQAwGDvA33EqOpGVguecgVKUJjpUE5arDqgojH9wzNIKwHjvAVWb9rHURpxmNZ91RlwXXTyX6WklsJ0VhPax+S8AYPDOn2rRbqSlAHrLQGlUn/2qZvCEOO+juZ5WD211SJoknCIgmmv91MZ8JE7ilFV83ktiutHEc3UPQEmGt3ueqRoFAAwmF9WibUt0nBC10+YxzrZQ3oyB6pL4B9B1m3QtxAYcQEhsIjTX0+ox27+vxAOQWD/78iwQlkEad3vIaQ+domoUADBYJ0+1aHsSPX2qvBRJEJwOqGkf8d4P5qpOktpq0qW59zKoAobxjyT9SNI/M9fi0tyXl6pOhNprdyGqBWPvr8sPNOf01zAyVVcQ05ffJhVVowCAgTp2qkXb6cjXBEi4MqB+MAMuxH+fWFTcK9x2sDYD8plIugBdXounqkDrEqFUe8etLiGacWpA/N8bqkYBAL2zyRmCPgIi9C/TcYKUAdj47h+5uYeU1yatmoa/Nq+F+Xe5+RkppxL4s4lzXeTONdbkOrPX2lKHh1VcW+Pqj0mIou3xAA9SrjuXVI0CQMd+wCk4CgKXkh4l/ZjTcXGn/bo0aLqT9EbSntODK67F104AuJf0taS3nJpRmZrXp+ZrcsWg4N7c029xL+n7K/9dk9+95z7pff/W1MS01aaee3Lctg3eO8d/L+l/k/SvzAvj7X/fmJgOuHV88CjpW0nftNA3j8nanMM7SS85HQDQPhKjhZ0JBN+IjYGuDXgkEqJoTy7plYoKg41pWxtOzehNnXZh7z8fmXv4pcmpGFx7TaQ0pVGwSXqb5N+XXuVr6/+U9G8l/b+culHFc+4Mn71IiKK78cKjDg+8aV/Nz9/a/PePRVIZAFpHYvS4w3mU9DEdzlmJCaDdAIcnwOiC3QXXTZDeieQ7mt/bb21/1yZZm1YDukle+OfSquN3Hf7sS+y5R6Lh/WdBPIeezEx7S5x74NfigXcTtmqUAh4AQKedzXvTWeN0kmAh1hBF/xLT1tjBHnh6X06vfHH9AMRz9kWfir7MdbyG7YqxxFkzJ/7lOgUAtC4Ri1o37ZB3BDEY2FTHC/qzIQQAAM2RlIIPysl5+8Ab9ew4bM6pAAC0zVahLTkVlRI9TUSlnBYMrJyoX2t860oCANDUVNLW6Te3xHPwpF2uaZeNZM5YDACA1kycjpikylPlqoKcUwLP5BVtlClGAAAUsW65Mo+KM/gmK8VzC+K5SvYcZZwKAEBbchXVZiiUn96uxTQr+CvRYSogVc0AABRSPV0GiWQTfDXR8XryxHOMXQEAPeCpW32HS1UBQjNjAAgAgCbigSHClZbiOapHj69tZjsCAFqTiXVaXImoEkUcAWN5yuCM0wIAGIlUTElGfPEcyf0C+2MAAFrDzn4Fdy1RqkQRy8DQ3WRiycAQABAxEkmINZ4rV4+O3dQ5H8S2AICbOlmbBBxzh1KeakWVKBgkAgAQlqmYeozxxHNbMY3czvLLaR4AgGutxFPHtBRE07GCtg4AQFjmOl4+JuWUIFIzHc9wy0Z8LjKxJBwA4AaJE0AmIz0HuY6r6Fi8G7Grqo6mmgYAEEu/xoaDGEu7d/dEGPNSSTZJzFr6AICLLZ0AkmCCIBrjkum42iDllAAAAuNOnWdteIxRLqbWL0Y8pgUA3GCiIimSjjyIzmgOGPGA0t2YKeeUAAAC4U6dZ61FjFmq44fdY6ucTMQsSADADcHkdmTvOxNT5wHXREX1OFMQAQD0W0CY18WYH3avxEN+AMCFbMVkNqL3TBAN1MtE5Q0AwG/l5A9T54H68c6YlgqbiU2YAABXdBwPIwqi3fVEc5oAUGkq1h0FANBHASHLdPyweyzJUVv4wyZMAICzbJIwH0kQvdV419wBLlWuxsk4JQCAgWUqkqJbsY4gcE6q4wcJY5gJlItNmAAADSQaz+LUbmUB64kCzZXXb1twSgAAA3E3WWIpJOCysZBbIJIyzgUAnPKDkbzPhQkw30r6MuL3memQ2JGke0kvJD3SzDsJuCYm+LAByPOKv7/GpuLPHiV9V/E993y+ncglvTb/fSfpJacEANCjpYqZC/RD/XBjutT58490fbLpXtL3Tix3T/zWG7ukmC0QeWmupVitTbt9I5ZPAwDUdIy2gjKN+H26lQVjWnS8q+A4NYOS3JzPtdOOfHttdagmyXVYNiHhI7xZpnGuUwUAGDZmdWcuZJySVk1NnORLbLc1x2ALOFJiuNaN5XqycSubMAHAFcZQMZqZTnEv6eOIO33b2d+JyoJrAuVU0hdqljy3T/3dSk736b9bFXDpgKhq6YPECZQ/cL4nPXOMG0nvzNd7PuaLzVQ8ZKACGwDQpbFVuHUtNefyU/P13NJS5YrO72+M6cpx2qfmM55ccCz3Js7cmHEMGCed8mDa15c6zJIEAODP7Boz84g7eyoLLh98ZObcVVUKPJjBia3CnDsBto/vJTXvZ6Fik7Hya2fe70xUP17CXbOXylEAQFd9ubsmIuvDX37+ZmfiIDe+W3gS26V6WsF66thX5rhpH5crz6yL0SLy9wcAuNLU6QRjTGiQFL2sLcx1vPN4VbCZRPZ+V6pO/m5NIJ7SNBqdy7HtcAoA6AdJ0eukJo6piuvsA+GVE+uENA5IVCRM66b7xxi7di1T3MnR2Me9AIArLSPt/Ox0K5Ki5wPLhQmO6xKDYxmApOZc1A0g1iM7HwxcAQD0LWGdq0z1s322Js6Jda11+8B7WRPX7sz7pw2dlinu5GjsMyUBAFcEUDFuukQQfd5M1dORViYgmnBt/HnK2ZbgmmsPAECf4uk5ykz8VrdE0FjjOndmEHHcZTLFmxy1723LxwwAcDuGmHbnI4iul+hQ8Vh+ir7SIQmI0+cuU3UVxlYkk7kGAQBd9SWsX/2U3fywrip0iL430aHQYm7izbrXULvLz2riOJskTWhWlePE2JKjE+d9EaMCAP5cMRjLVAISMvWBYPlp+YMJTgkC2wuuH8yfcU65FgEA7fQhJEULiaqXP9ppmHU0pyrW+Hx/5ctu9pT3HCvUJUl52H0sU5zJUftQYcFHDAAEV7ajSyJ5T2uRiHE/37wi4FuL9VbbHrxlqq7CTTk3JEcBADf1HQmnpHL5owcNUxk6Vf0apjbOXOp0xehK9cnUIaa41xUQ8LD7IFN8ydHU+ZwBACOWq0jgxGApEjC2o19WBJk5wV0v574cWNvKAwa4h3ZIBQYAoEmfMfZ4bqJDFagvyx9lerrmuk0eZjfEmFPVL1XU98P8unO+Fg+7M8WXHLWfcyYAwGjF1Bm4icCxBtFV1QRrsXboEBIdqh3cAH834sCLKZEAgCZIih76yFxPl+rJNcwD7kxPE4XLDuPLqrVTdwPEs2nNcWQjvj4zxZUczRVXkRAA4IrOPpbpA27QMsZgpS5gTWjmXg5uxhpUJ855IDkKAKiL58aaFE30tGpyyJhhquMKUZuc7av/roqh1gO0jUQ87C6PO2IZdyWKb1k5AMAVwWfoT/vmGm9SdKbjhGjfASsuDyR3Iw+qp87AYk2TAACU4tL3Gt+U5YkOiTefZvwsPIovqxKkuSfHMdYEaUzjr9g2IgYAXMB26iE/kc+cTnlMnVmq4ynzJETDa7djTpC6ydElzQEARm+sD7nrKiLTgftot0p0JX8q6ZJS/Lsd8NjGHstJ8TzMyJzPEAAwIrMIOoCp4lsAvElAMiJtlgAAIABJREFU6G7sQ0I0bJlng6Eh7kHvdahKAQCMty8c40PuuYcxwMw5pgf5u0Z9VjrOIYs88hHHclI8y1/Yz3BMnx0AjJ5NroWakBhbxZmtKCivIUpCNJ7P1g2qfarO6GswnNEUAGB0xjiDINXTSkMfEpBunzxkJeYlbWfrSRxRFcuNaa1/d8O0UMcmsSwxBwC4oPMOeZHpse1uXV5HdC0WB4/1unSnJNlq4NjlGu+acgAw9n5vTGtOJ3o668eXCtlMYT54n5TOaUYsx9jsSlOFn9wFAFwR/GwDPf71SDqucgDtS0UBug/M1qXPPY38PY99F2IAGJuxPeTOdVxNuPDoPWcKf2kqNxmZEcsN9p5Dr/7eiVlMADAaNtkW4jpOdofM2BMo5XWncvH0cmwyjwdRXRjTABkAxs59IJZE/D7L073XnsWvmeJZr99Njs48Or9jiuWmpbFLiOOvkIuHAAANhTyN3g3eskg/n0THT5h9C6DR//XqBvoxVxxMVDypX/PRA/DcjzgFV3N3oE8jfp+5/Jw2b8W4iamPM1AmKgo7xjADzB2vhfY+Q19uDgA694OIOqulpHtJnwV03HZKykTSN5K+jjSQsE+SHyW9Me8VSHW8iH+s18AYrvOyxLwmJwZxmwvPYdNqlI2519xziWHEPpT0T81//1Xp73aS/lTz7/5LSf+TuX7+Y0n/uaT/XdJfmr9/Zl5/kvRx6d/+yfxsSfqbEfZn9uHXS0l3kfZlS+ee/ta810ePjtE+jJyYvuBFROd/a8793ox1Hj1q++VY7o1n7aItSzOueTRtK6Q4Y6VDQncscSgAXCSWxKi92X+tcJJudh2qJMLgzb6/pYqnqveSvjQBHeC2k9cqKk7uzUArtqRWpqJyJcZB88Rc61+YQZIvU+o2kt6ZATyJUsTsY0k/kfSJniZCL/GfSfpPnf//XyX97ZU/a6dDgvT3kv464nOfqFgu5c7c42Mz1+Eht3RICr0091VfxwN7+ZU8bKuf3Xnazsqx3N7E/DH2u2sT59ybsVsobWxmro9HST+mywSAYzEkRu3un3ZgsA/kuGMO3qbm/SXm/99oHLtX4raAze4Y+6jDQ467yN7jwgwaQqw0OHWtv1L1MiAb8/Vdxd99oMumA+4l/aHB931k7jtVFaZ7Sd+advXIJYdIfC7ppzpdvfmvdVwh+smJn/fPJf0L89//Sodkx/8s6S/Mv/sn5hr7kZ5Whdoq1Q/Nq3w8fy3pN5L+GNlnYCv5QkuUNI2xVyqWBvCxStTKVDyA/ExxJuVSFZXJX8q/5HSq4+rRGON/N0H91nwOodiZzybWqnYAGLUQF5R216GaRvp52PWGWEsUlwSb7lq0NlEak7Xi2IwpLX1W9j3NPbrmE2eg7G4S8SA2fkP4vtIhyfjfO69XOiRKP7zh5/6jlo7vmQ4VrD+X9KuK4/wwks/B3TwziayNpc6908e1RMvxgz3WPPJrf+HE2BNPP4uVjvcViK2/ddexDWnT39wc84ouFADisw2sYwq1M700EFqNKPEwMQOImQk6cvP+1+a103ECyQ4y1g1f9mdm5vckkZ/PXMfJtmlkbWUXcGBavs5tAjuEzygrXYsxb/qFeP1Ex4nGX+lQMfrM8+P+RIeEqJsg/SqA4z5lpnA3Y4mtH1469/UxxJy2L8s973PdxHrMhSChvLfEOWYeDgNAREK7wYeeFKkzVZGgji3h60pNoJerSHy+H/C1NoOBXH6t69jWuXYD6llk10uI18pMx5WX7nS5kGQ6TpAu6EoRgGeSfqHjhOjnAb6PD0vv41s9XQYglPjzIcJ7SPnhVwgzN9yxQDqS+8FMYVQqxz4+sNfKTuHE4FvFPVYDgFGyT+tCSTKG2IGekyq+J8KJiurPlaorPquSlGszQMpVVHemNedk6vz9qZdbhWp/x6nj2KnYNTMJ/HOYlALqPMJ7VyiVBkvFVcU7UTEdMYalDRC3j3U8bT70SkvpUPlq39NvFF6S110WJRblJFYWyHEvnThsTGwbXAbQ35aT7bFwC15CeV9ZhPcuALhZ6Jsv2QF6CItI290ApXgWhc+cQCDkTQdskvK5+e+k5vv25vXO+e/7gd7zxBzrVNKnzn9XHfNbFTtzh2jpDNDuFM+OvyFswGbXfbVt65qNFNIejjMxr0dzTW4uuC/biqh707bYvR4++VyHdTqfmQH4N7p8uvCpzZb+znz9kQ4bJP17Sf+24vv+gblO/omkf3jm95U3e6rzTNJ/K+mvzP9/K+l3AXwmuQ6bUj2ae/c+gnaWqlgCKaQNAhPnenhxwb3f7eOqihW62FTHbsDouqUNpaZ/ftTh4Ynv8fdcRXV1TBuV2c9B8nNDrKo2H+KmxQCAE8FQKNPoE8W3KLxbQRbi099UTzdlKVeALlRUfob0vnLVV5auzHsKrTouU3zVfe5mEUtPj89WDzVdzmBiPqumldZdvR7MOW1y7U6dY41xAxWE63MVVaK/ULMq0Y91qCj9pZ5uztTk9bela+lvr/gZ9nibVoG6a4/6XjnqLoWSRdLOQu5fc91eLTqr6UfaXMInrfkdt05nDm1atLskT0wbtOaBxRArMZ0eAI6EXDGa6/DEvounum1bm6DoXocnwyGzU1DtgOCaCrKhJGYANisFLo/OQCCWal73Grk376/8nt9K+q3CqSRNVVS03Jvrfh/4Z5TK30oDW9HapHooMW1tVjGo3vfwOT1K+k5F9bTb1jfmPrU5c1+zlbExVbIgXB/rUEEpHaoovz3z/Z+b119V/N1O9RWcH5rX783//3NJ/8L5+/9B0v94wXE/0/GaoX9SkfQ8VUX6SkVS1NfKUfc+EULseUmcIB1mZHwd2L1vZ+73t84cs/1duV9poxLTPmRMSn++MX3NLTIdHgLuFc5avVNzvhOFVZ18jp3F2Mbn2jXbbmIYlwLA6NkKn8zz47RrCcZQiVRe8zEL5LgzPa2gtBVl9mm1/fOY5DquUp6a9liu5NuZ7wmhfU4V35q2C+f9TDxrO03OcV5qT1vTzqYDt5OlnlZLJ2fub7ZtjW2tOvjlmYpqz1dnvvdjHapD3WpNm2T88Irf/V9L+m/Mv/0LSf/4ip/xoaSf6rBBlLtZ1E/O/Du3ctTHJI+P9+pbuPfIEDeQcjcgaiO+rZpBtGyx3ZRj0EnLxx1SPBTqeOKUxPks5gGc//cBthsAQMWgN4TgNKRO8pIg5kH+Ty9PdEjYlAPdqqoAqd/E6MS0h67PYa765RumJlh/qBgETANrizEEdVv5s5Fc2nCwUh7YrD28L5Q3WTq3JICbeGe3egzFJjq/1enp85/reAOjNjZl+ouW38vnOk6Qnkv0/sJ5Pz5tMOXeF2cRtLGlwk9KLdTuUjR1U+rTltpNV9P0l4H2WeVNmbIIrquQimFCbTcAgA6Doa6sFUf1UUiJqERPK8V2Jlg5lUTvKzE613Eyctlh8JSr2bq2mZ5W1PqY5Aq1TTYx9WjQbSuKV2eO112XcxbA+W1anTJraUAMXMNdV/RU1eRXunz90aE802EDKXu8pxK+z8zf2/flS38T2s7TTfrO0JNRuw76zJWeJjF3uq4Iw2035Qf0bcoU9i7jS8WVHA1l7Ddz2jcAgGCoM7FMoQ8lAZVWBLTrC9pI14nRtDQYKU+pyjv4nbku2/CravqxzwnSctsMPaDONXwlfNbgGNzB3jaw+1vTqaMLBgwYwDMV1ZVfnfg+N3n6VUDv7xMVFa6nkqMfO+/vJx4ctw/35jHFc00kHcVtdVPqFze0mzaSrOeOOZTNaJv0zaHHconCmS0Y4jIMAADDnUbvc/AZwy70bhC99bTjTPQ0IXrNdPCuEqNVx1f32qndZH9+ZRtM9HQZAp8TpDEF1DsNO7WpydrN7j0hxEHYvEF7ce/hobcphOOnKtbjrPMThbODe5WP1Sw5+lWDc9FnzBn6FPrYZllk6q4qr40p9VO1Py1fDfrlNODPNFe7a7v6EGf4XhzDdHoACFgI0+hXCntaSzmI9jEBkuhpdeMt09LbToxOVF0t0OS1bmnQYn9/fuN7cBOkK/kZ5C0Vx/TndMD3YQeauwZtKvRKePfanN5wPoA22WrRuoSnuynTzwN+n25y9FWD9zpk1eha/qz/3EY8F8u63LfGN03j+PLD66aqZgh1mXxaKPxiDLffjWFvhhDuHUynB4CA+T6NPlX4O/35nhTN1X6yrs3EaKbqdaUufS1uPPdtDRwSPU1C5x62i2UkA7+lhnmwsj7TXhLFtfnI6syAwK0aTel60TFbCfqbE99jd23/NoL3+4nOT5e365IOtdZoDEsixZgUdfurWYfnrWpKfZN4Kq/4d13H0nOFn8B3Y+gYZgGFUm3OdHoACLiT8Xka/dBTYWMOolMdJxzbnN7dRmI01dNNjG59Pej6p+a52q0gSErvr+2p/21YRTAAdAdkfVVMJDq/RtlScWwmV3We8zPveSmgWzbpWVcJ+qGKROInkbznc9Pl3ff8bMD7Q8iVa2vFlxSV+pk6XjelftpgnHLJv2krPo6pf26y5E0IcnW3tmxbmE4PAAHyfRp9rrAX6Pc1KTrR8bSmLjbauSUxmuhpRWXbr90VAwDbHvMOBgtugnrlUXuPpTpm3vO95Fy1ibu5Q6p4ZDr9sC3maWaJ+Szn5h6Rm0H10K+Fczwzc4xjqGSx08brdqK3idNXEb1nd7OpuuUD7A71fU+nH6pyv4v38BDhNdT1hplW1ZT6U22iagp93sNxJvK/cOTa9htyctTdrDL39BiZTg8AAfJ5Gn0Mm3X4GETPdDyd6dbp5W0H2bmqp1t19Vqr+ZS+vMNgrLyG6oNH16WbHPX5Kf059j308SDIDv7qKqPmiqsapapfyc7cG5LA3+dURfKzz3tW2xX0a3NN5DokTZMI2qCdVn5qoyGbOP0ksuvPbjhVtzyAnU7/856vldAfBLlJpZni01di9JIp9bkuS6KGek6GasehXouzAOIIptMDQGCDOp+fhoY+zdS34GNSOqZtxx32pQFluWqy71eu8wm/XN0/pZ7quELCl+pR9yl9qLunpz0G0+eCYjsdM4uwbzlXLdv1WnZdt6Gl6hOhbpIxV1GhOdRr5hzLQkUVadOEqX0PoV3vNjlYVw1q1x/9VYTX3zMV0+U/PPHef9njMdk2twz8nhbrPfuamO0Ws5p7jtsvJxX32b7Xpo0xMeqOT0KufPZ9Iyam0wNAQHyeRp8o7CeamWdB9FTHScfco4ByqvbXEb2leurU55X3eP7y0nGlnrSjB4W9IYGt5OzygUvSoP3HUjV5zfsPbbffiUmM7CruF0tzzwh1cJmqSJ4uVT1t1X2YlgfyXu00+Z/W/L1di/PnitMvTrx/d53RPuOhUDdc8i2eGzpma7svLj9Ysqriwnnk56RP7hJJIT7o9n2cyHR6AAiIz9PofX8SeG6g2WcC8pKg/pp1NbsKKMsVrD696qpp854/13L1qA/tyZ0SGeKT8D6C6VSnk6/pCAJm279UXUe2+moZQFspV4faZOhMcZuavmOp6kr+nbn+E0+P/5c6PU3e/v1PIv38zlXM9pkY9X09wHPXwYPGsWFc30nAuin1cx1X6L7XcLPHYk6MukskhToLaOF5LNXXRmEAgJaSG75JFW41lW9BtJt47HtK9rn2lcnvtfeqgvB8gAFeOYG89iCAdT+7LOBguquB1kzNEqMxri9q2YdbaYDvv+qhzVZxV4udk5j3v6pIZqw9PDd2/dAPa/7eblD0SaSfl11jtW66/Lc9vf+5wl2b2k3crUZwjQ8xJqibUl81hX4yknMy5jHLLdeoj/3zubXmASBqPwzkOO1g9a2Hx/bafL2TtA+sg16ar/eSXg58LGsVTynfyL9qjbfyO/G98eQ4Hk1beqdDQi81g8wXpp0N4U7SpybYW5jjuA/oWn1jgujUfL3rYLAh85mduv+GdM4uda9inctNQMed61BlN3HuA28Cew9d2Jvr5M5JaHzhXEep6bvfdHA9XeOZ+frHmr+3CdO/ifxze1bz53/qKQ557dxzHwOL59aexHMxe2tes9K5L3sZWPsJqZ9+oeLB3x8UVmX3o7m3LMy95q1n7eS3pm3/TNI3NDcA8JOdPpF5dlypwl3zZuXJsbvriQ65s3mMT9pzDTslsDy1PvOkzYdYDZSruylY59rJ0O1o6GvF3ud9qhhNdTxlfK1wd+ztU9X6qzsNv9TAuanifU4lH8KzM+/x3FIDvt9ju+ZuTpOM5FoeKmarm1LvznYaKt7yeYPaNmXO+Q5xmRhfl+uYKO715AEgeIlzo/YtmbENNGHgroc05FoyMyfA3A58LCRGuwu03E0LFgMfiw1IQ5sW3uUUrHPtxId21FdioWoKWepRm5moWFqhyQZsOD24LieXhxoMjj0xem4qfdeJUd+nuJ5rxyFv/nlr/D3Ee66aUj/0Q1ef+qk+++wQHwZk8reoZq34N24DgKAHLzZx5pOZwqwWdddrnXvwufqykDqJ0W65yZzlgJ+3u0ZVHujnuevoWlydudexxujw9243kbdQmBtQ+HhdPWjYRLNNfNZNJbdrkH4c6WcwdGI09zTOvCSey0d23Q6dwKnapX7I6sW5xrO+rLUN9Lp1j92363aM7QgAguHrYtDrAINRt2JuyE6vnCTzAYnR7mXyIxnuHkca2PXbRVVTqmabL20VL3tep54OFNw2+yCmzbctcfr0IfqlprvSx7r50ldqtiv9s47vq6H1Bz7Ec2ONb3I9TYwO2X6WGl+CPHGu3UVgx57Kz+KaRPFv4gUAUQ5Y6dAu48Mai+7uyT4FcCRG++FWbG49aIehrTeaq/0kZZO1yXxdzqSP9z/0deQ+SFqJKtE+ri/7oKCvc20Tn5/X/P3Pzd9/Fel5/4V5fz+t+Ltz64/6eE+lD+tepmEr+d17hQ+J0a3Gt5yCdLysQWjrjfpaYLMbaVsCAK+l8nMx/BCrRWcDB28THSdFM8/OD4nR/rjJ0QcN89Aj1Gqbrqqbzi247+sGeG1YnGkHQ07Z9PVBUuwD7b4f3tiKyZ/X/P3n5u+/jfB8u4nPDyv+/pMO33uoa4sOHc/5IBk4bsvlT2LU3TRnjEnyhcIsVkk9PW57PhcCAHh3c156dEypwtu1L9Gw6ypO5Nfu5FVIjPbfJrcaNjnqrs82C/BzbbNS5lzyL+Z1p3Zn3vtQsxZ8fpAUu74r23+i08m/c8nDkJ1L+p6bZt/GvTSkneiHjud8vHcP0X/n8icxmin+5W7O2SrMtdB9LLSZ0Z4AwN+OzqekhR2sLgM6j+sBOzk3KTpUAqwJEqPjbBu5wtvZNHHa67Tl87Bs8DuTiK6RTKen0TdZZqDLfoZd54fjJke77u/dxGfdOpp2uvmryM7zr3R6GYFzywzc4txDEeI5vw1ZPJHLn8ToSiTKfdlY9lKp/KsaHXsFMgB4PfifeHhMoSQH5mo/iXJJ5xpCUlQiMTpkADZ0Gwmx0qDtBzRNEoD2d8ZUNbo7c40MMfBeDnjPRv1gu+v76Lc6nQC0U8pjqhq11aK/UXVC+MMO33Om8KpF54HEU31JNcyDKze+GjoxOqG/qLw+koCO+1wcMoQhlxACANR0cD4Nwu0gOZQEirt+Vj7A7w4lKSqRGB26nW4HDGhDnFKfqP2HNOeqpxKFu8nBuUHU5Mz9c9bzNcuAxB+Z+kl8/FTn19K01ZO/jOC8PtMhIXpqU6mvOny/W4VVZZc496M5l2XjfquPe/WQiVF7f9rRFCQVCb2QHnT7+Bna9r2kSQHA8FaeBYBdbXrSxzncDvi7Q6lsIDE6/PW11XC71ecKb/H+ttemyhsMKELd5KDMnSZdN6Ce9zxYcTdUyQI5jzPTJtY63lBt1UL7SDzqa/vYAdydTv9Jzfe4FZQ/Dbx/emXex69OnA+bOG17Gn0a4H1spTDXUOyr714P9HuHTozuRLK83G+E+HDRt2U9hlpGCABQ4k4NSTw5pr4HyW0F/kNuGhLSdC8So35c9zY4HCI5ahOzoTwhn7UcuE4aDPCGTmC39T7PLZ/Q927Vifpbz7KN85c7x1v3ym84F2vn5/jQztx7U5c79dpk4akKSVtZeiqB6rvPG7wHWy36qw5jlNDu9UyXrr5fDJGYzDV8YjRVHA8qu/psQjovPo4xdwqrGAgAopTJv8XlQ1ukv49BXJWFwnxaS2LUD24lX9/LaKQafhOFoe9Liwb33r537G5TedmGumNf9TxICWVDlbnOJ0Rvuf9Pa36+D9djH/cHtyL0VNLTJlB/o/CSo25StG4K/cfO9/ykg3tASElGNymfC1VsorvPqtHcg/vUmnZRK7QH3T7OSlwONI4EAFQMSn2ZGtJ2ZVZfAVuX0/6qZAp3fTwSo/7oczfoukBwG9hn3NaAsOm6xOXkaAgJhkTN1j2e9TzQDWHDiImOqzjPvdY3Xvfuy6drsY/pzD9XUSlZt0P9MxWbNYU0rd6tdn114vvse/tlh9dbKFPSh4rnQpKo/+RkrmETo5moFj0lVXgPun3b4HIm1q8FgMEHYL5No7eDoRCemiXqdwqoO6h9r3CfLpIY9UumYZLsbmIwhDW7urhfNp22WU5k5Z4O0MpTv08lRd331Md1kwTQ3uoSlnWvaxK8p5KiPrWpPvrXZzokRc8lD6WictQmEX2tHv1QxcZR596XWw37rINjCWn2T6LwkjtDsbMd+kri5BouMUoVcTNDVBK3db37Mv717XgAYFQy+VUl4mNH5Vsg4CaTVoG2OxKj/h5/31Mez+1W7us1v+jgZ55Lck1UPDiyr6UOydUhz93EDFIXOk64rU8cV3n91D74vqHKpUnRa+83W1VXnU48vi91mYD5RM2rQX+qYpMimyD9XIdk5JA+NMfxC+fYfnPm/bjT7H/SwTGlgd3bQ9xhe8h7fp8PtXINlxh1k8BUizZrE1kgx+zb8gi+zeAEgM78wMNjWplB9deSvvHgeBamQ3gr6UvPP8/UCaA/k3TfY0eemt/3QtJjgNfCe4+viVsC99eS3ijc5Ki9HzzqsO5cX23LTg//xtyLQrjuHyX9uMUBxdqcgybXdWraWnlguDevR0nfdfDePy0NDBNVJ3L35jq4a/B++2prQ92vm0p0ecXm3py7a+5T1qP5rL7x9HqbOAmJlyfa1K1+qsO0eukwtfx3J773Qx3W6yzv3v5H8/o35msXnkn6T0rHUpWU/Z0OidG64/hcRSXpb8yrbUuTILkzn10o8dzH5trCaTMVD+e7vqeW71sy/eSmx3bRx++LJQ7emzbh+/gkM/epa/rSLo/n3pw/AECPAw7fqjPt08ZZAOfPPmnsc13GXOHtQF+FilF/7wnndhDvavARUqV4F9ND3XO/a3h9T3V4mFRVAdj3a6uierXp++zzPjbE/fqaz/6SV3rDeXiQv8sx1N1bu562606V/7zB9z/TIaHqTlsf8vVLczznqlfdStFXHbZpG8+FEKvY64+NTy7jbpzX5b0kM/cu99V1u3LbMO3i8vgolFjYp3Gnj+NyAOiEb9Vxmfx6MmWfPu/lx5O7c4mcvqsL3N/5pQ5VtaGiYtRfUxXTavt8L7YS+k7+VxfZz7rtyvZyJeXLC6/z1PkMuxik7kv3ukddViU0NX2OfX8v1E/l5hD360vYmRKX2Jjzd831PVFYlU9u1WjXfd8rFUnR3+mw/uifGv7bjyX9SNJfdXw+fu/899/psoTxVyp2p/+dDtWxXcaXIcRz9lj7nikRA/tQJ7nhnuTr+7pkFgfCvZ5s/+tL7GljYV9mcgLAKPi2lklImy71vS6Nu/j7MoK2R8Wo/4Ft3+uNuhuKJZ6fn8Q51kkH17pbPbhQHOuazVVUZuzUbxWZz9Wiqa6r0E1HFq/Ydf76qGR3d3P/Vv4n9pq4ZEOmNq+5ENbKY2Od2/vuh4jiU+l43e8pH7H3YyRf47lrY6WQ95AAgOD4Vq4f0vSBVP1vKBDb4u8kRv23GqDNLQMaXG07HvgvnOtkp3A2M6i6X6413CY/ied9i3tuLlm2YGzcz7GPRMUnOt5k6efqZtf2rj3ToULUvpffqNkyATFfc65MYW0Q5ft5jCE5utR4H0C1PU4KZUq4jed8iLPc+yf3JADowcyzAVYW0ICv7yehaYRBGolR/7lVyn1VcYc4oN52fO3vFGaCNNNx0u9Bw1SP2QSzj9UX7r39klfW8GfHNqjq+8HJMz3d5f0rDb8DfRN2gyg3uftL9VP9GlLFUxfrRY9VpvCTo8sL77M4P1YKoS3MPRuDbmmDANB/5+/LtPWuq6/aHsj2WV2wVVxTlCQSo6FI1X9SPpSq0b6q3CemTT3oOMnYZKOjvs9HZo7LPVb7WQ6VpPN5Q79rqkXrqkhSc553Nf9mbfr7aQT3o76r+z7RYUq9u9HRL3SovPSpivRjHZYBKB/rr9R9lagrlGRjpn429RqTzLnnrBTOw5lJ6X6c8VG2Gj9OAvj8fXooz3R6ANHzaaOZnbn5v9DwmzAkTmDq48YY5YFsqsOC2F/31DkuFN+mAGy+FA67MP1eh03aHrkf/NlKh4RbH4vk28Tjq4rA/d68/nDBzzt3308b/pzn5njKx7SX9GsdNjQY6jP0eUM/t53rws/tRaldXJok3+iwiVGI/clWh+TuS9O2+vQTHRKP5c2V/ijpXzuf5+97OBb3GD4x7bucpP1rSf/SfO3L1HxGIcQsNg4eoi3FLFPxYPPe3Gt87sfLmwJ+TXtofcwUQlzcZzx3SXzwY7HxFwB0esP1qWLPtykMp4KnPp8oJiqqneaRtUEqRsPhTqnv672FUjWaDXTvmuqQsHY3afLhtTZtxJeqRN9mRlT1e5e+FqV28FDxPQ81f15epzTEqfY+xAsf6pAgdTcz8uH1Gw1fyboI7N7N2qLdSJ170IP8rcCcl46TjZbabwehXGdDxXN1bNw9oxkBiNEPPeqopOErRa3n5uuvPf+VPbSuAAAgAElEQVT87C6ud+rn6bfdjXqj4Z9eYrxsBcVKh4rYPtr/r02QmulQabD39NzYe+jUXKt9PdW3FaIyv3fqHEMTH5wZAD5K+q7hz9qb18bDz2fmcd/y/Mp/973T5sobWd3rUP32ylw7jyoqn7LS99rk+svA7kd3KpYESAa6N/xRRTJSelqx+UnHv//vdFxtvJP0b+THlPDMfP1tIPHct6Iaq6u+8TMTN9iKzJ+Z+40P/XlijskdD31JW+ikHezN+Z7L78KBtyoqhxMP2ulbc86+MP8NAOiAraLxoYMKZTd69zj7eKKc9vz7+kbFaHjsLvXrnn7fOpDzySL5frL30J3n7ebS16x0PbpVohPn525LfWpddWn5nFW9fOub7Xuf08y9MlMYa3amolp0iNjovdOnD3XeJyqqmm0byPmIOpUpnLV8fepbpk4bBQB0xJbnpx4F0r5Po7eB3brnz2gRaRskMRqeRE+TM30E074HhSyS7/f16OuU3muXK0hr/v1a56cH56pOjE4b/F6fEghcc34nFRaBHOeSj6w3tsK9fD9JeoxfFjp+OLSW3wUZMY47s0DiubVn5y2lCQFAN8GJT8kGn9eAG6pTnyv+agYSo2G/x12E190tA64Y23Po1p63nWsTo7PS+3MTDecSUws9XWfUtuGdLlvflGsOrlBm/ySBHGesZhX3mpW6e9ia6Wl1vd0QCP3HjmvPj9O9P/gw/gpljAwAQfKt0iKEp2Ez9ZdMnqh4op1F3A5JjIY7+O2zffr29P7cfYxF8v27xySeH9+lL3t/WeiyjZXSiu/LKpII25qfl3l6zZHg8EMmZv/gsvZS93BnruuXkJqaf79SdVU994vhYsdQlgfzaXmkUGZVAkCQfFo/JVEYCbI+n9jZoH0XeTskMRr+ALiPiuZQgumFeKrvkzSA++i1idGV03+e2nneJhlyVSc7zyWGpp5fcz6tlY5wPg97zfAQyw+J6TfrKta35l6Vn3itVb9m8878/IRT7c09wvclLHKPjjOUSnwACJJPN9hM/j+577NTmowoaCcxGrZdj+81hKlEQ286klUMFjM9TVxPnL9PTvyslbkv2x1ay7/HZXea9SmJFsIalNduvuRO8avbUOncq6qiNDSsM+pnn+BzMj2UzaHGyq32vOa+Zj/bW6tO0Y1UYSwT5tuSc74vCwQAQXdKvgSFIVQYZOpvGkOu8UzxIjEatqzHALfPpSzaaNPJgIFzVQKs6nOrq4ZYOn2E+zPL61qWv9+3CpBFANfiUrdPp5e5/so/61RSIYakqBvPDD3FMFHxcCArndu05jWt+J6qhxhV//bc36cD3IOSQPr0lagyDolt45lOV4zOaq4h+CeUTZhsH+pDcp2HgADQ4WDRl0FsCGuE2aqerpcecKtF0xG0RRKj8QS4eY+/y+dK6iGXKVlXXE+rivuJrcSxX11pRf9gKxJ3Fb/H9ic+JtrWAbSXTNcnRqseSLiJ7Nx8djap8KA4d+Eeuh+pqth9cAbTdZ+fffg5U3Wy270e39f8/FTNEud9mMn/h7qJmJIKDC2UdeN9WnbOtwpWAIjC1qPBYiL/k2N9BtK5xrXANonR8GXqrwLdJuF8fmI+5FP9U4lRe++yy4Isnc/O7QuWNfe6qYoknDuly+fqQ5+qPeq4y7Rc8yovLZGW/n5pvufBvOYR3oOGTnSVHz5kOk5Ap+a1dAbZqdMul851tKv5PJfOz3HvMW7F6NY5jnSA85HL/+VOQknIADHrc1zVRnzry/0ihJgGAILsjHwYyPrW6QyZ6BjLTvRVA9qY2MFhPqL7Sl/Tony7f507xr7VTaWfV9xzM+dYlxU/45Lfs+P+cpOVbkuOlgeWMx2vXfqguDcese0xHfjzmzv3pbRi8JrXHKe7C3d50JuqetmEqrhpPXB7D2ENvK1Ypw/wqd/z+WHdkPFcFTYbBIAWZfIrERnCTb6vQDrT+DYEIDEah3mPbTeEge1Qy4OsnbZnXzsdEi9JaTBi12Ozf1/+GU1+z4Pn9/BQ7i+p2q0aHZuhE6MzPV2/NTvRN6QV/9ZuElP+PFMdr/e7Vv2SIkMnRn2vZnKTHKxDCfgxHvV9hpxPy735NoYHgKD59oRuK7/X0+wzkA5lMfIxJi4uYQe/+Yg+xz7Xxg1hAfqhkoVViZHUOZZT07ZnpfY7q7hXL0u/Z1q6d/mUEEkV1rIkt2zCdMuaY4mGmXbdRbtPB25v5V20FzV9Q1rxuSfOtbSraMc7J156qHmvQyZGJwH052xeAvgVN4Ywnd6nh79JpOMmABiET0/03U7R16f3854G1+6O22OqZIg5MTq2Kq6+1v9MArhvzDRMUs5NENmXfRiWqag2yJ2/t8e6dM6vXY8yK/2MRen3WKn8q2Lw8ZjO9YendpE/97q2T891vB5pEuC9Z+iB66R0/mfOZ1l1rtOKmKzu80xL722u+g20hkyMhnC9MY0e8EsI0+kzz+5tIWxYDADe821Hu1T+V/Sse+q0y4mHMQihwiTWAWIXEvX39N+nDeTOte0+k7d1a4yuS/eZpOJ8PpT6il3pZ6z0dPMl19KzAU6I1+FM1ydG5y1ct0PtZn6rfODjtstRTJzrf1cRa+WlAe3MubZy81qUYoG04r2t5d9U+tzzGCbRcA/Upuazsp/vuua1NN+TkfTASNpcFsA40Lex80IsoQMArQWuS8+Ox9ebe1/TPBKFMZ2kq4AotgTikAOwoa17SlAsPLuXVRkieTvVcbVoqqcbuaQn/t2k5s+Tmj8v3y/Lv29IaaD3l4WuS4zecs3NK37eMsD7TjbQ7587A2d3DdBzU+ntw4TyNeNOp08rPl87UN+VrtkhE6O+b7zU5zT6qfm81rpt7WCbMFrI34eA8EMXbS7teZzlc7zs02zLoWYkAUCUSYuM42kk66nzyTXOda/s4HEe4Xvbapw7R2bqZxMm357gV1mI3UOHlATQRupcs97orIPfGUpy1Ic1RmemD1+br1VxTWruB4n5/3nN/SFTsSZwomLpi/Lvy0sD9WzA+43vD3e7nrJrP6edqtcAXquoCk5rXrY9rE78nKX83dwK/fdxixvbnP379YBtLoQlLnwar4aSTAYAr/kWuPq+g2lfa9+McdMlt8Imxo49c97f2AYxfW3C5Pv9wz7VZ/fQ4fu8EF2aHJ109DtDqFTzITE6ZvZetwvgXtB2/Js6sWI5mZTd+Psm5twu9TRptRZrpY5VX23uoaLNddEfhLApWi6/Zjj6vpwUAHjfkfoUuCaeD1r7mkafKtyqpmtlun1dvBDYwfpW43qqa5Mry55+j69tyPd73BiEXlWRqdmGTHkHg9T38j/ZZbEZxbB8X/Oui8TtVE+nLXedrEz19OHFjnY/GkO0uVlFm9u23OZCmAHk24Nu1hkFgBvknt1Efa+m6msNl76SSL61wzG854kzYH8Y0eClryA3k/8VmfbzZ+rjMGxVRcjXXqLT1aNd3EdTHVeo+Y4HEH5cZ75WL7WZRJjo6TrAS/U7E2tiYin3ocla41qjfkx8aHNJRZtbtXgMvs8ASuRX8pZ1RgHgBmvPAtdcfj/tWvZ0fL4HA20EdKmeroM0lkRw4gwa3af7sSfKdj3cbxL5nxDpazkOnD7/WST3ErsGoX2lPQy+5gGcl7HNuvCtj/e9MrutxG1aimPaTAxde+5zHU+npq+JS6rukpHXtrlFB20uhFjJp+XoWGcUACK5oYcwYO1jal7VTsCxv3Ya35o4VU/7x/JaRnCd3sIOWpnuxPlHN1jL14/z72vlUlsJhFz+Tl9PdDzFekWyJAoLj9vcVMcP/W9tc5n8X2fUt7WsWWcUAK6Qyr+1wnxOaCTqpwLlmp2HQ3xtVSwKP2aJDsnwut0/Y3z1dQ3lnt97SdqQtEE3cpH85vyfvwdfew+Y6DjpuJS/Scd5Ke5iCZcwhdTm8lKbS678OSGsM+pbvJlrXDPwAKDVYMmnm6fPU2D72iGRDSMQsz6Wicjkd+IxEdN8hx5gMt0sbr4tE8T594tNHlyTuJ2oqMp6UBgPd6dO3/sgkqMh9lmhtbm0pTbn+9JiuWdj6VThbJAIAN7wbe2Wqec38z52uw7h6SjQxnWUj/w6YmOYYTHdLO4kgm/LBI3Ng+fn3yZusyvalpugmgZ2XYR67GMWclI7aaHN+b7OaCr/HsTT/wHAhXyrTPR9TbA+1xdd0TwRqayn69z3gXkMO6OHzK7TFvN0M7sJS58Dyty8hrzuWCphWIn8f/BzTeIghsQiydFwP6/dSNtc7nlf7eP97toHPwAw2s7Wtxu57fwWIz5f7FYNBs3jCAx9W7B/bFL1X1VsH3yte36P7jTExPx50tHvfO9Bu16K9UV9uLZ8fch9zYyCmBKKJEfD+5x2CnvZl3Kbu6T/sfcTnx90+bY0j49L5QHARf5Bz4GrJN179P4/Ml+/9zSQ7uN82c9lw+WASO3Ny23vXXhnviYen4euzwHqbSQ9moFMX9PpJwO0scfSNZfpkLDKIv5s7ef5a5r5IHyML2+N5xbm3z1KeuHxe2vCfQ8T+b2Jz5gtnTb3pfkaS5u7ZLf6+9J162s84dMxbogvAYSuz8TotHTz9EHi4THdEkhf8/4nN/6eiQ5PCgly0bW5rk869hHo2t/x3NPz9wea0ODuzNcvIn1/e0k/lvRx4IPqS2Sm/9sr7ORVyHx+yO3Gmu8u6Osy898vImlXNlH1aPphKsv8kqt4wBNTm/vSaXOLC/7d3vx36vF7k/x5EH9vjikR64wCCFSfiVGbLPjOw2DV50C/y2RGG8nqlQk2mIqPLqWmnV07VdIOSD/t8Bj3AdxXMCxbUTiTPw+TEjMoXpvXUvUVre51uDb3/bn59xMVa4zm5vsXkn5m/vtnzr+zf28frK2dV1ZzjHPT36zN1/IDuWnFsfVxju37+5bmPXgst/H0+J6X+ohzcZlN4HytuJLtNjlq74HEjX6YSnodaZvb65Aclelbms7WuPc8nvvOw+O7d+IEAMAJPm5M4vNi/XY9wC6nXNrNQPIr/33qnMOcJo4O3drW7L/ves0on+8pvm82NxZ23bM+kgL5mc985vTN5Ve5omtZ833uGp9p6Rqo+9lrHa8B97703+7vzk78nPzMMW3VbXJ0Kv/WehvzNeXrgNxupDm94L3EvCGmXY/w0rUf0e31E3Oby502N7ng+30d22QexnO5WGcUABoPHh48Oy6fkxh9BPq3Jl93IjGKfqROW2sa2A5xvV8yAB7qHJIY9WNAs+txoFL1mU9UJBzdNf9S58/zikFl5vyMmU4nRt1/W57GuKz43YlzDWU63jjN/T5bmZqV+qCJE3PY99BlAnrJQJBYrsXjy2/s40Ji488VzXdQY2pzlySAfX+QbPvaLccEAGGZexgA+X4D7yPQt78jueEzJTGKPq/Xumq2JmzCJe1hsJd6eA4T+fmAamzchGTW06B3feIeXpWgzUp/d+p4myZG85p/N6n53XZa/7nBad2u9At1m7RMbuxDEVa8dGvftfPovuCD6YlrF/3FBGNqc+kFba7pdct9r1m/DgDe+2FPv8eur/TOw3PwONLPPnHe//6Kgf1rLh8MKNNhvcbNBf9mr+4Xht87QfXGs3O2d65fDNvnfGvuoa9VbMjUN9svv634u43TT2ROm3nb4gDVWlX0L/ar/b7fXvE7vi/1dW2zfeDdFX0o2jMJ5Pj2DdrTxFx7dyP43O4lfaPDA5rX8nd92Jh10eZuqbB8Z/rHjbpZ59S+z6xBm9t03H+0FUtMzDHuPbqup+bFNQ0gKH0lRtNSR4Nm56vLji5xOrFrgylg6KD+knvKO3NtdRno+r7zuw2kp2IH7SF9I+mVisTj3QDHYO/hVTt57yv6Ctt++mijG/N1dkM/1XUfnZn/fkNzHlQbm0j2cXzvzlyL8xba00L1y7i8vCGmPLWj970OG/Zc4425jlL5+TAxZklH97C0pX+7N8fVdt94SZvzPV66d2LavUfHNOV6BhCiPnalT03HsvesY0krBoC+2ffw/i/9TKZiJ1H4cw1nV1xPzzs8Jps4+tTTc3bvDMQxHFs1KvlZfT+58M9vOQ8val5fOtdT4tn5oVoUTX3Q4HtsTLW5MZnwaxVJifJrdcO9YFnzM6fOfSzG+2DMXrXU5rqSmHa3brnf2atItp5rc77HS/vSeM4H33keAwNArT4So184na+P/jDSz/6jK9//gssGHrmkennfw/GEEkhPaTqD+8YkBhINs0bz/YkBTFo6Tmt2w+/7oOY6OTWos3HDzzz63ObmmB9FtSjOa1LRapNU37ZwTb85cRzX3Gden+gv3rTQr94595yE5tKbrKU217VU7W+A9KZhm/P1wVx5/PqRR8e0IcYEEKq+Kkal69YIG3sgve/wdySlAWoTM7FIPvySqHkF833pnjRGNpCmYnR4jyqmoL4aYPD1W+e+Xh7E2ETNnTnOO/P/i9L1c8m1lJauW/szV6Xfn+hQKTR1jjGtuM7TAa5ld33tNpJCwEzFrKo21vD9RvVJ2FNJzrprtq5/favjhybX2jv3glc0h15kLbe5U+5UPyvAfX1t2tO+ZkyUt3hM7vs+1ea+K42XfLPx8PjunWMizgSA0gDH1x3qcvm7m3ofx2Z3orykQ93peGdwdqVHX9ITbe/hgnbc9f1oIr93SM7Msa1oUt5Y6/zO67f2JXXXzdL5/6X5/l3FdTWRtD3xs07tSu/+2c681hU/c1v6/9T8+2Xp36+dY8xVv8tw3sF5XTnHCr/6hrWnx3euz7Ftqs3ZOO4O9+XXrmH/d+pnPLTch87k/w7gMVl1GLe3MTaY99DmsgZtLu/g2mzT1NPrxsY0My41AHjaqaw8PrZ8pMd2afImPzMozmnu6GHwW/dqeo+xiZfUo2uLJMK4JU4Cou31m2fms656rZx7+67ieprWDCZXzs9wB7CpeS/rivZVPg77Pu2mM2tzDrbm52cVv3et4+SOPUb7M6c1/6atvsl9r0wT5J7WVn/w0FGbmp3oL5skelY6/RCkbQ9cW71wH94mHbb3W8cGVWOOrOc2F0K85GO8uWBcCABP7TrqzNrg8xOtvONO5dKnjKcqB0iMos/B77mKtabXfdrhsfpaJS8VVfwPNCmv+JB0m1z5u7scZPti6vSB9HV+9g0+Ji/OzSBI1W3F1/JEfzlreD+6Jql6y7FyfXWr6+rctsYGk4qftWz5WG3yfx7gvcXneDMTD+ABBKjLNUanZqDkrk/mo0cPj+mjjo/NdqD7ht+/EGvFwH9NBmx9rDO6ce6BvtmX7gHwwzcq1jxbDfT5PKp+zelM1YmU3Pm3+0g/G7sr98Rc2znNFRfEwW6fUGb7oa7Wefz6xHW5rLnPJKrfrfvU5k63eme+PqfZdOp5x22uy/4oafl32DWsv2g4ZvLRvYfxpo/HBABndZkYTc8EhKiXlDqXrn5+088x4yNBIIPQc231e04TO9N76qX5bBL5V2nxMx0Stg8qpq7vVCRQvo74c7EbQT1K+pJmihbZJNV3Hf38R3NfqTJR9cPEUw9mXqq7B/ab0tgB3cVJUpGI9lnXhSvnEnibAGIlH4t77s1xTUScCSAgXSZGnwfU+Y5NcsFn85rThYCcq27em6+f9hCoJp6eo70zMIZfA5wvzdep2p82eIs3Osz82Ot4N/i3OuwofBfpZ7JUUSn7wtNB6NilzmA8NOcqStuwUf3u8ZmOE5G56hMZbzo+x3vn+iKZwvVSFaO0fcz3zu9JaBqt33e4lgEEpeup9KEGq6gOmoEQAunXZwZfVQF3m2z1TxLAuYJf7lVUJWbyJzm60aFa7DNJPzCvj82xbiL9LJYqKtBfEst4z8fZAJMzf3fpskbX+vpE+7VVo+mJvnOjfpaQuA+k7wxVUhEL+Xys5aTabzvq22Joc77FczYOZmkMAMHoMjGalDodhNfJUi2KEM0ZWJ1kK8V5ku+njYrpr5n8qhwdi3JS9I5TgiucmrbcR7Wo6+WJY1ycuM+cmo7fNtYm7FZI47JFRb/YxXHvzdeUeK71OCbk8wpghLpKjE5LHQ788mmDz4fkEkJ2apDXdRBpryuelONad3qaHKXCt797R2b+m6QoYnGv+rWAT8V7L3uM5VkDvFtJIMe40vFmf4/qbh3rP9AsOrFxPk/GkgCC8MOOfm5f04PQzeeTSHrFaULAUvPaVAwO3WugC9z30IY789Um6qZincuu+8WVigoXkqLouo9y+6Q+fKPDDtxpw+9/q353L7d956c0j04k5mufez88V7NlGD4yfVz5ofWj6fe6vk4+qPnze3NMVfEkzt8/Zubc0ZcC8N4POQWokInqJITvNYHsVQMB+OPODMzWZnC262mQODZTHZKiiYrqJAZyYWgyA8ZnfVdJvpS0bRDj7dXfFHqVPkPiz3ikun469UbdVyyfW76BB5HXe6dDYvQL+lMAIehqKn1a6nAQlg2nAJEEZai/vkNZx21iguuFDgnCB0nvz7y25nvt6/2Vr53597mGWyvrXkUydGLe25xm3JrcnNPEDMBfMIgLCjOULrNXs4TnS5EUgh99f5eJctp497FmyqkAEIKuEqP2CT5rt4TbmW04DQh88JdzGoKW6lDF92C+zs2fNRkk2alv6Y1BeaJit2ablF2q/6SyTY7aaa02SZzQTG5qX1sVmwy+lfSZeKCL+L09E+PdEQPCA3ZjsK1IroXIXbqKWAWA97qaSm87MAKrcL3UoVoKCNHXnIJgZTokq5JSgP1b83Wv08mriZ4mLvelr5f0ZYkO66TZ/87MayPpTY/93KOkL3VIEL9Wkdj7VjwEuERizl/mnNeX6nctRWBIU51ONM1MH0o1HW61UbPZOx+YdpnoaRIt0eFBYBfrPidOP4BuPn8bO+05HQDGGHC916Gyxmd2emU6wmOzP3925vtyNZ9yysAcXUovaIvrMz/Lfl/Xx7r29Fxm5vhWHvYd7rT3Bx2qRRLPjnFZam9D7BiflM7VTkWiD9UmFX3aEJ8dxhPL5SfioyHvw9sG/egQxzV3rkt01x4XHf6ONsYGqaqXwHnoIB7Izxynz/eXS8ZzQ1kwRgQQii6m0tvOY8Pp9da5xcatb8RTVISHatHT7MDiO88GbHa63KMOlZgfm89y79m986U5tjvzZ5kOick+p9fvdZhabzemSEwygQRpdXtfmHPz2olP7PmjjwvbY+m+Fgp7X+s7Mb9oeK+aDXAvseeCZbi6sWkY+/twnFVrPU/UbVL3VJsM5T7oG7u5HJt9AvBeF4nR5+YrG5/4q+kuqHZ3XiAUd2KNwJBMdKh4KK/zmMvvhNVeh6TaC/PfdlOkbID2/pkOieRHHSdIc417Xa/UORdz8xnZAfcL8fA2FvYBT6htPen5mrhk47a+K/Y/cmJPdNvvhuBlxX161nKb/NTp06vYJDL9xXU2pfMIAN7qYo3RlE4kKneSXtGpIQBNEvnTM0Fwm/dAXxO0vjy5t0nRqfPZ3TVIIkyvvB89r/izdxWDpEnp79+e+Cw3OiQmFzokRZfOfbPPdp/rUOE/l/QzFetovjbH/mtzrLE/NJiYz+FVafC8Ub/rwQJNEwZJj9fG8sQ9ZF9xX7X/5kVPx5h43neGrulsMZ98q6fT2KctxnBJDzEhWLIGwEh1vX5fW8a8xqhdx6npGlKpWGMUw2rSBucX/Jwu1//MPb8mfLj32QpLu27Y9Mz3ztVsXbyuXk2qQd21R7OBP+OZub+X38fOHOdc8ezym5r3U36/D+a9Jtw+o+bz/XZ2pr/Z9XgvXp24v81U7A8wZHxnfx/XbHcezDmedvwZttl2umyP9mdOAh3TbuX3Gqgh5QUAjFzbFaP2xszT3vaSB124v/Dnb3SomprxkcBTex0q5oa6pkLiw6BzpaJS9EVNn2EToq9Kn9vGfP/3F/7Oex1P0azbvX7vnKfnOiQ57aZLr3WobK3awfyl+ZppmMpR11vzmpj79hcqdobNSt/76Jyb7wJov7aqN6lpy/c6VBm9FVNyMaxz7e9eRRX8psPjyE7Eb3fO/exrVa/h+FqnK+fbMHXO2Z6m05mNaQspY7U/j1n3AfcV04DG3RP6ZABj62R83o3ZFepOpkN9TomKJ81UjGKoe0vdK73w2upyAX/fdwkd+um9/QxOVYpOVVRT2XtVNmAwn5fufyvVJ9mXalYJO9R1ZKsrh6zAbfO1M+9nLirNxqjreKnLWOvS2TvXOBW77SruY2vVV813+WCxj3OB4nrp6jy3PTZIdN3soEvOxdLjeMn3eK6JEKpaAaCTNUbF4CRKex2qcF5zKuCZjS6vtvm+h+Py8cm4DUyHqi5InHvI1zXHkemQuJ6o2ORoM+A5K6/h+VrFBhAvK97DS/N3qRlwfebhteJWV091ugLTN4/OOd8ICLvvUscJg6XqE5pfVvRTL1WdBJ2qqJjvwhfm629pFp16az7HNJDjrTrO+5bb3Lv/n73393Elyfb8vjNvVlgBKzQf9IwFJKDzQes3x3mOjJvtPW/YgPzJltwFHhuQK3T2X8Cev4B3jIVM9gCy5LCuKYvVkCVDYLUhQJZ4RzKEldMyKmIYzEqy+CNOZETm5wMQ1fd23WRmROSJc75x4kSm/tJY+Iw2AABThRqjj9Mqv4xROUc5zOIiYxRSOsfnMsaqO957y2zOlHXjbmWhYbP6ffufy1YJ69xdysockrmOGVjnskJnwe9gGwHK9ZceYXaFT7w3nJNa3bfLZ6nHd2fc204VQ9ocyzEXMzboizkOke6z0vv1Re+NlVL6Ij7zGxsNAPAgvzUw0hI1RB7Ft9+XGd7XD3QPZMQPuq8emaWN8oHdU6aOtHQ+Q8KSOgiqvzvTbj4A+aj+bKYceJb0j+7nTP0C7ufgGf9F1LYFsOaLjH25S/j6nn8wsPXfX7Bh7YV/++OF+WttYM8WwX29MJTNeTIaczGZOX+g6vz9nyKPuUQf2fkAACAASURBVJJrUfv3MPd3xt/fB149AJgSK5VTIyjnjNFatquUj16/rwZVy/CHBO9EN3Pg1gDtvQyBGOScNb8a8H31tTfX79iVXUFByU7XnTq95BUGKNJfijUfnJtz5gbzUmib+ubN6oprVDpfmzS2j+/vtWE4J2H+gA917Xi/JzaYufd5dWbsxbzf/RVjrpV9Tfox276+8QYAMBkst2fEBmH0fgGiFsIoDPNOhJ9bg6hK9qLlo+/WWO3ee1slmxuD9pwcfh/ALS88155XGGCS4sA1NncX2Y9a6fxW+FsWaS5tqV9E7j8LkQ7ej9di++6WB+2lHnNt5vGNv79VAePN+0lzXj0AmAKlrQhtlG8mT5WgLR8ViNZCGIX0wW94Qm6OAfQYgnQLmnf6zSpIS8HyQpA1IyAASDI3lGxzG8UTBxc6LyxtHrj/ezNPr73+mqE8yJwce9HOQhA9KG42sR9z7wmKPk5sMu3DtiC/KeeYGwBAUtwao390P38q5Nl/DgLX3HjJ+N4834lasjDs+LuVeef9sgrSrb/jEeYD3Z+vZfbnM21WOXvyY4Fj8UfXnrOeAOqz0pw8DQB58nzF+/8xsCGPCAcznRcYP+v1xPlb+faMr3fpu26ZL327UL8+LX7MVcpbrPoo6ffuZywfzY+5P13xPuXsz31Z0Hjzde2pMwoA2RJTGPUTzV9o1qhUmd7XZ8Urgg5wCz/pvoONvnI/f0lwj79k2nZDOfp+fujrtz8GAVCpiy0/dJ6FgAAAJOmvN9qQRw5ru3Qw0r2H2b3ovGhZ6zFR7fvA9r8wVAabt75XHokYfiHxo14F+b93P2OOjdUNYy73A4WrC35Vjn67VEapPQCAh4PtnA8c6cNvf8x1+471ltdY/VXyFlgoh1qPb99LsY3cf0eTaTsOYaffK7OyV771nu+ZA6szY3fHawxgNjfkupV+ccP9+Vqj99QMvFQPNEYNwu2F699TJqRRmXWlx8Ze5dSpjBX3XVuyIve4NuezMi6NNcRRABg1tzh+ONO3TXhWE8gu0oQ6d/dK/TywZKbXGkXNA9dIcSJ9CYe67Qb63u2Zfi1tUe0emz2WZwTIDb/wkusBZ/UN91cHtqIecZ+FtZdbhnAW43PsY67S5YMSH3lvh8I/T1VIH/hD4Va8dgAwZtoCjd1QIsGtbWrlNFIIGwie45NCfH3U5qVeDPK2bF2gHb7H6W8vjAsAsLO7Y7i/VTBXjfWU9q3Ios+JDWPuDSUk/JTmVyyUv9gMABMmVo1RXzvt54Ke3RfEzz3T0aq4NnXvYErUnffegjCg4GCyt1yquzqG9rpUS/ClkPkGoERyf79uub8fdDwUZ4wntbduPr73MCiIz7cjH3OrYMx9c+W/mXdipdwoUcD2dUYrUT4DADIkljBadZy/Esg9EH/qtK3VBEWtF5gC/uAly8WbeefdzY3a/XxmOCTnpeBgBqCU92sMwmgo3iw0rm2nCx0PXPqOuSireCgcc+2Inq3RcWfcdzfEqV9lHtfm7m++F3vWvHYAkBuxhdHSDPRzxgba2tF/Cb4DcRTGTp3ARuV+gqnnrwyH5FSFjA2AEvFZXV9lfn/VDb6pz6ZcKt/D/G6dH3024kf3gbziIT/mvmfM/c2fe2FomNjCP9AUAJAbMYTRuuDJI+cg1bfnTHZZRj8xQcEEqJRm8ca/p7mWFPlyYLv35RVtVzKX2rcKgk8AiEvOi9yhP3dL6aKPkn50/71W2UKVP6Rz5uZgttDnyUcdxcOxjDkf69wy5mbKP+GnlIX4Lk+Z22oAmDC/iygGvBTqTNfuk+Pk9+TubW50f3/WazbCQpfr/40tgHoSmVuVG1vVBJ71y0QO7odOkJ5jnw9xf096zUCpzryPoZNfMnXm/Q8wVp4COzLLcH6/1859556n0WnmW0mEouizrq/xCMPgBcSSx1yt1wOl/Jj79o4xm/tcnqI8lJUt/Oz6Zo6/BABjo1V5J9KXcu9r2Z5ML72eDvjrxD4H17ZTrPdX63g659Q+rXHb7tz31Jn2/X6g+5sH792l+yq5pEel8yfE1uIEZgBrdpnbkYO7v+oBX7A0X7sJnnsnaiyXRMlj7tcHx5yPDXM+iMq/VyUuKm/cvS95zQAgJ2JkjPpsrBIzDp/0msmU68TiVwIt62b95CanF71mkI6ZL3TMwG1cAPWtjiUFxs6q44g8Kd8TN2PyfTDWLcm9GH410P2FGQKV3u4u8DboDwW/i82FMUatMoA0/tzcfXK0I+EOpY83/ttvnY/9vbOVc71mXua88yX0N/xWZmosl4Pvr6X7VAX0Ybj9/6NeM67vud/cszHDzPgSMy5/dvHXV7xmADA2fPZZXeC91+7e9xO+P5/N9aums5pf65hd8qvGUWT+GofRP+9a09hCH47vQ6Lv2U+8Hc5xKUMgvLcSbdBMx+yNxY3PDgBxWLj3bJvp/bV6PPuuCWzNIVO/u+r4VyuGZtE0Ot1tleOYm0cec7lnY7bKP6O15NgbAOBuShfVzm1/zO3+KsPv8A5FM7GxG4qF8xE/Z6tpicBDOJD+ezaIBr0sdXk7uV9gawseY31O/iyRDQeYOlXm/txCcUpqdEWgnMoCtToVbhcMy1Ew12nZrVzG3Kzj38YYc0MvIl/DdgT+/NQScgBgQo7ooeBneKTu01gmQC9abCc4hjcad/2/MFhsJti/qUR/b0fqTNvBBw+rDMZhn62tVeYiRRX0fXPBtlJfFCCdP5ejDZlFFANmzpaHglA7oMjQ6FQ424qFoLFRwpibRbpuzovc0jgWW3OvyQ8AcDO5b126htxLAbSyz3h7T7QYu7N3aRts6awLcPJSjGtL593bwZy3BeWQYeAXIVbv/P+SDunYXpgDZ0Hg1ggAUr2Puc7lsQ+IqnV6mKIXq1L4cTO9Faf22LrRU+s0Yzn1mFv2jLmY77v3mZcZt/8YtqGnOFwYACApqxEYttyfIdUkOOU6eK3GKx5OoVTAOZaJ+tU7eDnXUsshM74OAqnqTNBT0gnG6+B55hfsCnW0ANLO5bn6cyujuaLRqVjk573GwI4unO07KJ/sQUhPLmPOyleivug4/HMAgGTEXv3GOA83UTea7pbPEmoK3UOtaQszqbfRzxnf77J9x97OVYY4GtYnbi60+Vgz0QFyxPsxue5ist5d0Og0gzTcZtw6n+BWm1o7P3mjU2EqzBBFEJ32OzeWMVdCLLDROHahTD0+AYCREbNeUg6iQc7GOUU251j6815yP4TrHqa8IjtPNJ5LsB85jYOwX5oLv5PrAR5VJwhsztjSvciGABjKvuQsbKQoW1TpNSs13PIcfg7Ojm31usjTus86+Pv9mX+7d783Z7hBz5jbXzHmNmfG3OHCmFslGHMkyhB3AQDcRawTNqfiqD5Ck6itp3o6/Vgn6FbTreHjtyyuR/I9j5BbmYxWl7ege4EjDOp3GjYzqdZplujhgp3cBMEcmVQA+HND2uPK2aq1zgullz57d89LIYbCuMdc7jFQNbJYxYvoNa8MAOTA7x74t36yehpBOzw5w1xL+pjh/f2k4wp9JenF6Hv+7L7jj5m2A8C1NMGYtsQ7dH/JuC3qzGx1K+mDjgeHfC3pufM7z5J+7373X5xdWrvPs7OBPxvd3xfB/DbrCcyeJH17xg6vdcxw/UbSZ15FgEH8ubmhr/QIn5yN+CDpxwTf9+L8udCnq3QUjuc6LuB8Dmzx5x67DDDWMRfO9T9l2q5jirv9OAnHBQBAseRwynHMQL2UrK/W8DsqTfd0ejJGx0OjNNvbSyg/kevW0pmO2RmXMkf97y51X+ZJrM8120ffqzsKAPZYHXBk4WeRUQ6Ql9+Y8y7IVvkf9EmMAgDFQsbo8Rm+V97p/H/Ra5bBHw0nkRe9rpQu9Jql9R2vCBTIv7iffzL+Hp8Z+Kx8MwPrTO30Z71mim7dXLJ19ubjmd/90X18VsfcWFQI+/S9/p3pNFP0W5FxDzAUn/S6kJKrP/fibMrc2QxsBcDw/MH9/HPG9/iV+/nzSNr8xf38wPADgJIZ4yneJWRK+qLbloeR1EHfTimbgYzRcVArXTbOuoD2za2+aJeZTg8z2hRmd2od62RdqjsKAOlsSu4ZmVM+GBEgZ5uRcwzofY2x1Pr1/vqOIQgAJdM4Y7Yd0TPlLiBIxy1i1s6037LaTmhMI4yOAy9WpiiLUcLpoKWcYNrq9GCjVnkLpLVOBd29OJgEIBe8D7PI9P4qsZ0eILeYNmeBbjbSOIWT6QGgeHwQ247omUpYwU/lTHsnYUpZowij5RO+H5Xxd9XKP2ve3+O+kP7rnkR/0Oti0Dyj8dVX63QlxA2AnMi9zqiU/wnYAFOhhMQY78+NLbtyqudaAMCI8JkyixE9U6UyxLFtogncb9loJzKmEUbLx2eLpljc8IH3uoD+XxfWj01gf8KMzJX7f7XshciZ+57GfW/fwU9rnHmALFko/11NS41v5xVAybFfzvN5qf7ctTFtzVAEgFIpZXvmrfhgPGfBt1GaLLBax6ytKQT/CKPjcW5TOFiHAmxF6RlJCx0zOXL5bF17kiEKUMZ8UMI9VnQZwCCUskDhF/6XI2v/jcicBwAcziwpIQtMOooytfH3bDXOFco+EEbLZp3QufXZSDlvUS/hAJJbqN043uq0tqflZ+e+q3V9jhgKUA575Z+JtNH06oCXHv/UehVx2gufWmTAlWYnmszvc6dxZlZOKU4BgBFSa7zbf/yz5V6TL9UBM7XSZuENCcJo2cFKynHqhbmc69c14rRPAJgu6wLmvxIW2aYe77R6bDFu58ZiIxbXco35cj9PodJ4E5IaUVIEAAqmLUAUeIQSygTMlS4bbK1pCCwIo+Xis25S1BYNHdQKUQAAIOuAO3ffpYSyLFNi4ebPg86XU9nofLbo2v3OXueF0kaIpDn5SbnviivhcOB7qcUiPgCMQIRYjvT5/ESZu/C7S9QPs8BBXI54XCOMlu1UpRIqS3GkS9hGCgBg6buUUE7Ez9NkTA07VpbqP/TPZ3tWd163dn3MAX752ofcz8soZbs/8RcATI6x1jnx+K1Nua9eNUq3BcuvVo75ICaE0TJJWQe3UhmlJebB+woAMHV/NedF3XBeqeiyQfykMDv04PyJuVFfL/VWJEUgHc4/zn1BolYZ2/0fwQu/c4YlAJTGmA706GNWiJMaZnLWCb7PC1CbkY/rMTp+7Uj7rEnsMK4KcaSXI39XAQBumSNyr+Hpd2Kt6bJkLHSaIbpX2i3uddDv/rMSW+xTUUoW5noCtsHHl5QTAYCiqDWNQvGllAvwQk0KASSsazrGyQthtCzChYE28ffVhTiZjabL3PVTxbQNMFlCu52z3+J96zFnheU0JkJBcj/wXDnX6eFOe1ECx5qmkFi2pO3+xCoAMNnJZDuR58x9O32ltNmt7Yidd4TRslgldmzbgmzf2LZl1sEzhQHsuue9nettnbhtx171nTC8Dn6n1vkThgGgzLki93lwhziQZC4Jt823Gfmy3QzWFd1lxr6Qd62UWBRtAQBwMEdMpXJKBmwSO1HeeR/bNl2E0XIIs5frBN9XUraob5sxZfXXOq39FgY3h+C99f10cI52rX5Bexu8F62OAuu2831bvT1xGADKYlFI0N2IrFFLljo9GT7HDLyZThf8towFU3+ilPhuOZE+2TM8AaAkplQHxAuADZP8CaEoNabJGmG0vHdzk7gdS1jNrjW+lfc66G/vOFfB3/3aCXy7NtsHmvPOPHbud2qRuQUwFrxdKKFG39hPnx6KUGxcK39BrNFx0S9XEbf0ODb3+b2U8y5ix2AsBABAcYZrCkZ6qXK2MKTegtVqfKfUI4yW9UypFgJKyhaVTrPdx0Kt40KMn3984NgGz7o941jXnfegTxgNf8f/dzdjFLECoDy2KmchtxGZU7EJRdGSFvPnge9xEOJoTF+iBAGu0TS20Xfj2JphCgClTNJ+gp4CocBQFTKBptwash3ZpI0wWo4NShnglHISfche48rorgOH2WdTrXUULrvC6Ll/3174vfB3wuCpW6sUAMqhUXkL+mSNxiMURUtsz5mOghHiaLy4pYTs8also+++q0uGKQCU5GBOKTgsaWJKXUy80nE1ewxF4hFG82eX2AZVSlvLNBZhLbVW5W9NqoM+2DoHeq9jJuevHXtdnZm7lp3gKGQR/E4tttIDlE5oB0vyUby9otboY5QuinpCcXTPmHjYjyhhkaTStHZohvHKmqEKACUwlYOX+hzUfUH3mtKZXqhM4agPhNEy7E/K8d09lKfUoNAfWtS4d7YNPnXwyTXgqgMb0+q4CFTrVBhtzoz3bSfA6BNGQ1G1FsIoQO5Uge1aBjZtq9PTvUsMtEs5NTt3f3gsmbezYEzs6N672Bb0TvlFnc2E+qcWO3MAoMBJZTGhZy6tvuAQznQoWFUF9zXCaP4OU0r7E27brwttt6YjEFz72em0vqYXH+YD93/dGQvhGPeEB3O1wby16pnLtjoVUdad79sHv+M/bGUEsLO5/h0Phc51z7t6zeegcrdlNiJrNMbc3Y7suQ4iq24K79MUy2nMRhqHAcBImVpav2ddkCNSaxiR0osRuxGM7zHRjiA4CBcnUm6HLKkW1TUBVRuICyv351XwdzvdLqCGtTdXshOt5zoVJbfBWGh0mmEwc33mx8y+Z/yHz73Vq4ja9Hxf3wdhFOBxm74IbNLhTrtzCN7LtY5C6kLjOMBjp/GUKko5tryoNMZsu3CX1oLuvpqSMrDDOG5qiyJ+LsDPAoCsqTTdlZxw9bmESWoIQadS+SvZCKN5B4c7pS8RUXoW9L2BZR0IF6GIeE221kFHoXFqbQcA54P9lS4vwIQZ2j7ju9Wx7q//TKnNppqQcC8rjb8W5xBlhcbgB5cyJkpKxrGKXxH9AaAIB22qtT+8M78sqK9SbwEOV7KbAvsYYTRfBzGlQBlmnLSC96jcu79Sv3C6c/+vpqkAJmUXlnoVOA8X7EIjsoOuEQqou5ef71v3fFLHJGypf9+fOxQUl4TbyadoF0uPWQBgIiwnPgk3KucQJukoKKXe2t4WPKkjjOb5zqVePW7F6a+PMHfzxVb92aRrkQ0AMEYBonHvd98CyT5497Gr11NpPAdcWrNPGKdU6s96bhI9a824yDoWejTWnuoBW97vZyEIALLGiwXthJ1+v+q4KOx+U2e5hll+JYmjCKP5EGYfpxy/YbCDeBfHDi3UL5YgkgKUzVyXt8dvnP0mIzTOPL6nKc7SKO328lbn622n9rURkfqpVZ54PMVDl/r6DFsHAEU4Zi1tUIwTstQwdYhmGqYu5KMgjOYTbA9Vr5Zti/Z927fl3oukNU0EkDV+oePc9viW99jEp6K8y2VSt8+lettVonuoRNboJUorN7AQtWPHGosBwMhoccpOnJCqkHv2jkHq0zlDR74UcRRhdHhCUTS1ONmIgy5S93WfSOpPkacPAPKgVr8YGmZ9sz3elnAXBRm4/XN3KkGp1tsFgfDPq4TPTtboZd+3JJFxO8D4yRHvE9YMYwDIfZJpJ94OpZ0WONdwW4NDkasEcRRhdPixOtR4CUtPTN3GDdX3fcLLVtPdUgYwJJWzhX0LFyshzg0BOxout0uquXvdeScWnffkkPg9ZUH3fJs0Bd5zxftMOSsAyJsW0eBvAXxpk9dKw62cDrkt+lYQRod9r4YU0TeadsH7nGiC/iCLFCAttd4KPz4zFDF0WCoNVzs+5zbx4zSF3xAuooY+40rDHMIU+i8rhoOkMhcQSku6IW4BACYasYITtkUpE1i4rX0zwPeXIo4ijA7D0KIoWxTzDXhbvc1YQ6ABiE+jt1uCydjOj7B2fEVz/E2Q3CR8T7oHjHk/ZqhDmLwPw4E1Zb4flagV29eHG5oCAHJli9H+G7XKq11Ta9jTtkNnMldxFGE0PUOLomyhL4MmmIPCwJP5CODxd6u7DXgtRLcS/HF2OKQ/xbs7D4Xf211YSPkOeT9myouGoThdUkb1SpTI6ItXaQ8AyJaDqH3S5xy1Bd1zq2FXUhudihq5icoIo+md2KFr0LKFvrzAp7vNdy+y2gDumY+7gmgrDlEqgUos6Pl2SLmNvtLbE+jD711q+EOYpjwedipPUAsX52tM28l7dqApACB35wNeqVVe1mgOjkOtfA9kQhhNG5QPPQ7CIIat2eXNSa1Oa70hkAJcZ3v3Pe8NgmhZhCVg6gmP5ZT+bKv+bfSemd7W5h1rW+TGkGcpxBhTZEeOPx4DgJE5YBjuU0rMGg2z9NoM7iEncRRhNK0DP2TmcKlbruBtINoKgRTgPWqdbvU98J4UzzqwebMJP38q/6Zb77rv/dlomEOYKk1XTAoXCUo6B4Ns0fNQGgIAsmUltmicCzRKXKFsNHymQSiOHjKZ/BBG0wUyQ9aananMLVdwuU9bnQqk1CAFeBVMQrGGLfPjsntDHqw5NLuEfmytt9mgs3f869Q+xl7TE9mqYN5fFXbvLX7oWTjXBACydz44kf688W4Lu++1hj+5sQrGVg7ZKwijtgFceGhBm8nYRxwYn1DQ6lQgXdPPMOF3oVvzkHdhXMwzmVeH9NlSjOlubetLC7sHDXMIk/exmgmNAR9DlFYnnmzR68YybQMA2RnvlM5HadQa5gTKGP0aOhSzAe8jF8EMYdQucPOZDEML4GFd0TE7XDP3fP6zcGPg3KcJfrcayfOHgexBlEyAafkl4bbf7Ujea2+jmnfsWd35VCPv70bTqzdaJfTZQhHrmi3bXRE1VSZjDv5eSnJI8Hj03skW7YedqgCQrSPKqc2X8cLeurD7rgJnb+h7Dx3JjYYRahFGbQO2vYYtmTC2uqJzHQXPjbND3eDtkc/eXbN1/TgvtI3CuopbUbMKxstMp9vm9ypzp0/tbPRapwunMT47d82VjiLqGGxCySLRI7FJCmGp6Zkbr7m31IcwtYXGIo/2SWk2rhIHp+UeuwDARPndFRO8JD3TVGf5Qccshh8kvRRy3y+SvnGOZSPpZ0k/DnQv30r65IKVhQtUvsls3FWZO5yfMnIifMaed1h/cn38ecC+8wHUxwHH+b1tOXc25kv339cE8k+dPz9L+uuZ3/1Kx8WIufvvyn3qnus+u/H2nLm9e5b0e72KLN/reADNDzjcMDIWOi0b8aMb558zv2+f3f5B74uUz8HzfDrzO1/0XCO0YfPO333fY9t+dj9L8nu/C+aGjaSvC+j7Uvhj588/XTH3vugoUM+cj/3R+D6f3HiuRt4f88AX/+GK/siN74P+euL1Ohufet8UACAbUp/6WCo+q6HEAvjh9uImA4cn3AKYcty9lzEannyZ46dv7LUDtGM9YB+eC7xzKBtxyzvgs6X2ui6jc6n4mU+1jhmpl7JR9+5em8wDskqn2Wdj2V4M06abJbpT/hmQtbMrO53P6lzrmNFZRWyrOvj+1Tu27RDY2LqQsXDQNA5japQmY7TqGRfXjMdW6Q9hqjX+7dmV8tnp9kgflVZ+bah2otQAAGQFBZBvd55KbKtwG9bQQVU30EslYFyzlb7WZbFqqE+rfsGvVTpxcqZjXaActs57Nsp7i6EXQjcXAnQvFHgBdDagnVsEgkKJQukyaOccDn0DeCR4PCjvw3cq946tdFkI9btFhqx3XutYmqTPFh/c/1tmLGrMVbZwdC2pfJu2Z6zeGhOkEsJqjVtMKm2R+1JMPYVyBzFi6gNNAQA54UWgmqZ4l9KLaW+VjzgqF0yFAoZ1Xchbaoy2ilvP8ZEs0SqD4KHWqWCcy0ngYe3aXLKo/La69TvBd1uI3fViwrnMKy965JTFVulU2OXkeiiNlfLNEvWLJ+cWEcPFk5zfuyqw1fsLz5FbjcNG+ewCsiKVb9Pt91vas7sQYH0IU61xC6O7wEcqcb5uCr//1Izx3AcAwDBNhioQBko88CDH1diugGF5eMqtY7178nXKz07XiWbWwUM3S/SQ0djPqUSEF0M3Oi+ENhrPydGt+jNKvZBQZ3KvrcraggxQ6VRwWWUwV4f2rW9xJNyOXrIgEGb3n1uozCWbNKf5z4JG9iJgrfOHd13z2SvtIUy1xiuM5rSr7V4beRCl6W6BxCwAyA6E0fsC7X2h9z8LJqOctqosOwGXRTB471ifK/7Juec+t279bQ0dsSZBnzwaNA0dFC7UL57nmEVpZU98G3QFk71rg6FFhFqnmekLAeTJIrOxes6++Xd77O9SrfOZsTsNL5KGfVOPsO2tRUCLhe+m8DZhHN/HqvDYcAh8XIVPBgBZUIkaH/cIAd5Jbgt9hrBGVU7iaKXTTI3Y9QEfXQRYyLb+6D3CY2swFmudCsH7zJzVRqdbpIcYp23PWMghUB6acyLpVsMK2GG2/K+yL9sBcCttx5YMZUcq9YuB3r5NNeu60vls0iHtW+mZdpf8EEsRcCabckmWouVS46tfGYqiTaHPMNd4FygsWYkMWwCYkOMxVhrlfdjLtRN5juKoH5d73b6t/D1iZEfPFL/+6COHT7URHYtKb4XpNtN3b4jgoNbbDJODppEZeg+LHhHBj6mh7OZaw4rqAH1zyiaDcVn3vK977NvZPmvO2LchsuRzqx8fg0q2iRuN7Ba5rfo/pr+Xmz/XFPwc/v3bYBpvYoxCPwAUTC2E0UcnwpLbLmdx1DuBoQC51WMCacyyEZUe34YVIxMzhqPc9yw5HlbTDCQe1HpbSmHoDMjSRISl3magrTWMQBqOo1JPvoVxUOk0k7kZ6H3ovpsbsb3xlj48Z9/qRPcQZsSPSRz1bWlho7c9Y/5eugvlVocwbTWemrKNxiGKLlV+ogwaBACAc3wxSvc7w94ZKnlbZu7iaPfwn0cEUot6urVurz96iDhmWt0vjFZ6K4g+kr2ayoleJ/zOXMS8Mc052wzatO7YPTLiYMi5dwgxq2vfhsp2HFugv4nkr9zjK41NHPXPE7v9KsWtDbpSmkOYxnJYWmQZJAAAIABJREFUTejPrQp+jrHEgUO2H+ecAEA2tKK+xyOEp4KW7ITmLo76CbRPxLslq8VyAm503fb62JmY97zD59oyV2e7UVpRtNapeOe3f5NZaNfGQwikQwtTMF2aAefcRm8FUexbGn/F2saMTRxdG8UoreIKmXPZH8I00zhEpFbjKWezCWw43IdlVjgAwF0TVEtTPDwxln6AVQni6LmAY++c0Pfu2dqpnPU43NZB0S3vcK3+LeF15gJCKid6LgTRId7nboZVyjYf6xZUKMOmbROO9Vqn2/axb8P4K9YLQGOyaT75IHbtxr6dII+yk+0hTAuVL8KF70LpGZYLjSMxZmi8z13TFACQi0FqaIooTmhb+LOUIo76gKPVaZbmwTle57JIU622VzqKPXvZ1mpr3xl7l+o75u6ILJVGFJ31BK8IBmmp9VaUTjUvdU+sZz4EKxqlz5YK5yME0eH8lbXSHWw4FptWGfhttd4uXMfw0ZayPYTJj59St56P4fT58P06iMSiGPi5iVIEADA4VvV7psZC9qdRpqK07aX+dNiu8HdwE24TBICptyGlaLv2jHN27kTwUmrIpTo9fKlTcZ0aosNSd97lbaL3aDaywA3yY6X0omjbsW8rIYgObd/CBaAYBzCO3ab5+SDWAvNaNvVAK70VRmOKmIdC47Uxzq1sobePYQAAkkPR43iM4ZT60MELt2KV4ojNnSO673FQdyMd76FTsXAO6KHn2ZtCAuKZTgXdxnCsbDttVAtyGtfhOE7lNCOOgvW4SpEZM+/MeakWGOA6GqUTrNcq+6Abv6AQYzFh1uMfxVyk6FuMjsFCZZbsGuNuDLbQ27Qnh0ADwKDUYsUrJtXIJv/SHZq5C0C7dZ98lsZa5YiFl8bcWv01Tfcq74ThKtGYazuBC1t48h0PYaCZ6vR4xFEoeTytNExJCrjdx1opTfZoOOfFPgAyhS8X64CWRjbb6C9dv4loQ1aF9dte46rfXYkt9FZaxJ6mAIAhibkKC6fO50Hj2K7W3QJT6lipnHO6Uf/J8Tv3Piwy77e5e461+rNivRhaogNay76EQ6XTLNGt2DZfAgulzx5FHIXSxlE3S3Qjts2XMvftE9i3puPzlDQ2YtXx7x4+aZGB2fUxH82Eq1RehmI4Z+81nszKrUgosoDdqwAwOLHr9sCpAzembQFtwQ71uUCkVX82qXfkNu53aqUXzyr3vUu9Cp3bM/fpx9lS4zh51o8vi/ZudCq8kiVaFt0SC7sE7yXiKDxqc1KNn9CGHvDrirRv6wT2rVZZNeS779IjWWVVj/9ksdjft4vnkb5sC4spliOLF7r9cBAL6lZ6BKUJAGAQ5iqzXk0pbesdzzGJL4uOQ12PKCBZ6H0B0juma+cgNa4N6hsdv1nw7xbuWq279nvff3C/046k/btil8UWv27ASZZo2TQdO2QtACGOwr3jNMW46dpQskTxs67xUUssk7R/0K+eB/6W/8yN2rf7PfUD73cphy6NZYfZpZiZ09Nt2IqDoAFgQGpR7NiScMV0TCtgXYd6NeL3Y+kcu/fESqtPKMLWGp+YF9afsnI2q854bTFNo6BKbIcQR+EWmkTiQAobCsPbN4t+TbEoafVejaVU1S1zT+6x2jzBmB2KWWBnN5gnE1b46AAwtONFTQ9bvNM5pq0k3kkIDwxIdSBKDu9M7Ry+1vXvNVme50RP/2l1PFG+nojD3+q0bIHF+Kk1zgxneOtM+3fK8t0JxVHGElwSCLzdsRRFG42zhh/02xwr4bItzJfzAtVqAv0/L2TOaVRmeYZbY7m9yMa3jglWNAUADAXCqC2zRAHSUAxxIAqUTaU0h4M0SluL0rK9avdu+VIPt35WOorvjbvemAKXMCizFojWIw7+4HFCUdQys6hVugWBlG3nS8t429V3UGLfwYn+9/0Oi6XGs8uiO5dZ9HWtcupv15rOAtVOeWcpdrOOx2KLQsa6+y/X95pdrAAwGAijaZz9MW9zm+ntKd84D3DOwQyDr8boe8IswhK2B3btxdIFG9eIAo9+fM3aVSAmlGpn90qTHbwTBzBA/1zox4blLpEwi3BVYBvVehUvfZmavdKVpSn1kMJa9os/XV8u51q1U8jgazOfZ+rOu9sSv8GD4+nRw9UAAB5yghBG0xCuONYjfkayR6GPSm/FcytHf13gGFy4+95fCOp91md9x6cNPpsrxYid+85FQYFnKExZ1gJNJYBBWWxlW/8w1fiOfc/NO/atb5Gm0fWZ7X22bqPrDlIsSSjtLv5Y3fey0yeLTMfVmHdj1Rm/591SWmMt4xGOMeqKpgFNAgAGn3hJW0/DFLZgVp1gZC9q8U2dVmm26HWzXXIXDWpnEw494sAmYcA+DwSFzQXxwgulJdiuFOJ4RdAEASvj+T0URXOvl+xP5N7puoUea5tSXWHjDs5uLDIfZ91xsDDswxQlb2LEMGPL5ktVo/jeNg/fn5XGuzDI4md6/LiivQFgMKcCYTS9Qzv2ibZbe3QtJrqp0Q2sLLNEUwWLMQL0ticw3+uYnZmLrVpcEDdKEBG65RSsxjgZ8tDIdkFm3rFvOS5OnLNt3t9plZeYW+mYyXo4Y9/qTMdbykXAttMuTWZtsVRZGdSlxgndLNGc/awYUEt8GLxdq2kKAEhNq/FuQ8nZ6fFO+HYCz9p1pKjRM40xnrLfZwWIBrVODygoIfjutvHigoiQayZpI3txNPyOBa//5Aizu1bG189xy2qjt1vWfdZ7o3IWRGvXf32LVstMnyPMjG+Mx3h3kXM+wXZIMc/mWL+66cz7Y84SlU7Fdub0tCCMAsBgePGipSkGC6SmIErXHaea7fXjZdEJLK233+UuijY9gfZW5We2zM+ICDvlJ4Y0shdH1+IwpikS2p+t0Xt2UJ7ZY63eLpJsNI6svbn6F4HWGb7fKUXBbp/nJJCVLo7m6MvMNb3SWAtx2FIO7zFtDwDJ8RMeK2LDTr6riTxz03GqOb1+PFQDONC5iqJ9ooHPqqxG2Pd9maS5PW8je3E03P4I0wriLA5bylEU7bNte/d3Y7Rt/uCobjmRrfISiFKKgpVOdz/ktL2+VHE0t1IZs05bHjSNBJqpJa3kSCsStgBgIHy2D+LU8MF6M5Fnnum0ZlWuWRhwfX+uOv3ZJgjicxRFz4kGuW7DtBIR9pm+341sxdEq6Huc+vETLm7WhmMpB1G0z7aNIfP9FmqdikW5CaSpRcG6Y+v3yiPJYi37RbDYduSQiS/T955vJuKfzzo2F4ahxYcCgKHwEx8MPwlMSRz1gV83yGjFAU0lOZFDOtC5ZVd022I/sfe5L2ju1h3M4QC2xjhothTLIK/5y0oEz+3wlaXeCqL1xPu+TyCtMri3ITImcxwfoV+9U57JH91F5aHf9Sm/51M6GLeUmLilKQAg9USAMJoHYykcfw+1TgUUv2UHxyRfmo4DvUvsQOdyWui5LKqaIfLu+z30+LUUR/343GPHRstWNplF3Uz4IcdPt140tcFPqfRWIM1h8WcIfzLHuXDRuZ82o7FTd96tIcdN0/OeTykOyfXAqynHF1M4nBgAMgxYMT75kIvYM+R4RCDN23nMwYEOg74hg64G0eCh93voLJ5GdgcszIKxsaLrR8fScK7eZuAHVD1zcUO3X2yvbs3NoQ8OCefJlOOoW5vSxxiLTMby0KJf31gZom3Y5ULshTYBAIDxYYLOnEangpMXSCuGxyDk5EAvNXxmda3TgzimvmX+nvc7lyyexnA81WJL/RipgvEbW/zKYf5vRXmbWHPD0Is/Q46nSm8P5BtyrmwGvpdKeWQXV3pdrEMQJeZCmwAAwPhkTa6nbA/lyPYd4oLzkoZ5jyM/pAMd1m5cDvRuhvXApnJKq1VbbjIRECwzq1ZiS/3Y2Br5TW0wDofIIAtPxc6pZmaJdGs1rgZ6/3Moy9C3sDrUYve5Rd6V0fzjd9l0a21vB5jv6sz8uRyYcgkztAkAAIxPMaIB4ujpOO1zLHFk4lO5oG6XWXvPg2BmPdAYzKUe2JjIpQbcRjb1xcIt9S3dPYrx6sdqzHHSDBygtxp+a+8Y/bgcFn9yOVRm5nyL7mL3ZoDx1ieQhiLp4oF2qt1zbjrX9n5DnUGbUwcdURRtAgDgjDO+oSmydKoRR0/py2A8OEe2onnupnK2YNPTtjlk6HYDu9TfvRJ1RFMKCNsBgndL8SAU07DjZY9Ti1Poh1z06WaJbsSCT2xyWPwZemGxr026i92WmZvvxUF9Iqa/p627r/bCZ6u3i8mhIL5M7KMuLvhz+MqIorlTD+TvA8DEaUUmS+6BGOLoWyo3ZvcZOKClMld/ZmiYHZpLgLzRMNuRu6LBSogGloTbTw9KL0BXhuLBRmRAlE5YFiHmHL8faGw0nfeNLFFbX27oxZ9aw5aiOWdzV5n4cjP3Dqx0XuS85rN3fT2EGNqt6erbMid/bmgQRcvA9xEAQDJaIYyW4FAjjl52BvtW+xFJ+9uqLwjJub3Cw5ZSjv2uaFAzfJLQFaNTB/C1UdBUBeMJAarMcWlxkJbPmku96BOKA0OIdFMlXPzZD+DPLZXvgXALvd0R5H2TdiDfd+7aqX3n07jfmw3UZudKAuD/nrd7Dc2RNQijADDYJLGkKbIGcfS6NmrUv9Ifo25UiVQ6v03s4P6+ybhNQjEipY1aIRoM/i6HAUzqrZ9WYnyr+BmHkAYvYG4MxkPKOX3WmSNbunaQeS1cnGwG8vuHOozpWl9uc8aXW2u6GZB+p885ny51DdMS411E0TJAGAWAwZx9JtIyxALE0euodLlu1M45ScsRjf2ZjkX/1+rPCg0F4hKeZ6+0NZC72x1XvEqDsuy8sykD4Y3B93IQU5ksFP9grvkAQfq840OQuTzs/BbONW3i7/bjYFtAOzXqz4r09nnMi97zK3064oHrxjuiaDkgjAJAcvxkUdMUxU3wiKO3Bbbv1Y06uCBh7YKURYbvhd/WtXT3uHH3fLjwXFuVWVJgrbRbTHGe86QOxnfKU53Dg3ZiCuSN8s7WgrfEFrOHWPQJD98ZYgs39BPuTkiZGR+Oh5J2jNXuPTzny/n6nq2G2dr+CJXzO9sLfp3f6UOZqPtiJmLdcvDjn3EOAMlgRabsiR4B57728871RtcV2e+eTFobBpa161N/f1tdX/R/LJmw4SnedeJ3igWH/AiD+JT9UxuNQz/WWro2exrFF7LDQ5xmid+f1JnXcP0Y80J5qv4Zqn53zHnbL3pf8pMOgf+2NPbfrp1XvAC6vuLevRCKX3K73dvj1xULO1oBwJzfdJyKQ8/fQxkO4UpHUfRbSR9ploedKC+afuH+XOn91crPkp7df38K/v7pnX8XXvuD++73HLcX9/ks6efgu/3fj2Vse8HgB9mLR5ULPOauPb8O+hPyGhfbAfrJB9Mvkn7vvjtGYLx11/rHSNcEmzG3czbiO0k/Rux7uTH8ZPwMcx3rJD+772S85UfjbE3qftroVaR7dvatdGo35r9yP9/zqUL/7VnSX3v+/p578Hylo9BdX3kvz86/exqRXzeEPx/avW/x64pj696ZFPMkAMDfsmF2NEWxhMXEW5rD1MmqXRv77IS+ek8xPj47tdXxpNNqQm29SWiXwi2tO7FlJ3eGyOwNx0jMLfU+G2JNt2ZLq7iHZVmNpUvzFpmiZfkZqfsrLBnSjrhduxmaByP/7dqdPd0dSPge8Wg0XG1yiO8j1TQFAFgRZobWzvA86XVFBsrEZzRJr1mj39IkSancJ8z4/ELXZSr87P77xX2eJt6W3iZJ9qvEYQYimVTlMETmqMW4DK/594y9LMeZz1yPtSOjlfS94mYfX3P/2LdyGCLDd6Fjrdt/1LSyFL3/5m2y50vdL1aeyzx95h1MHg99R5sXi89mj7VbAwDgXSedk5fHQSNWSKF8UmVTdTMPeV/KYojM0bXiZzL7jIiWLs3WP4qVLVoFc/Qi4fuBP1AeYeZoqoxyb4u2ND8U6hNsAhtLXDueORj/CAAwOnAzC3HqLJRvj1IcSOKDQArylx0IpRRHwy2nsU5xroU4nyt+kaaJbHNSCE+hfavoyiKZK+1p9VVg3xY0PxREJQ6kHXNM0NIUAJCCDZPIKJ3p8BRG+hZKcWxTBWVrIYqOhdSZcY3iC5mcUJ8fvp9jZYsugqC9wr7BjeMw5mLMJVqlW5wEiGVbD9i8UeLtEdm/AJAEChuPVyzYii0lUA4+mLfOploq3XZWSGfvwgO0rPFCZqwsrkZkjeaGH0/LyNdrje+7EVlTY6NR2hIMqcYqwKO0ooTYmFmI8h4AkBAf4NU0xShZBU7DFqcBMqUOxuk80fcsafZRkbImXziOqkjXjL1tGx4PxmIJ1Y3SCN/h1uuWbhwVKbOAU41XgHvpJn+saZJRxwYIowCQBD+pwLiDvHCbSU2TQGZsEzi3YX1InOjx2rpU2XIb2WSN7unGbOxRG8nuxM4+fe97NnThqMdlisw4DoWDXKlFubAp9TXCKAAkA2F0Gsx1WpicrfWQm+NjXXsvZVAJw9EqTfZxFXxPHeF6oXBPiYfhqCLbIz8erQXvjagNOXZSLu6lmpcB7p3fOWB2GjYPnQIAkoHBmdYEE26t3+FUQAakyEzxzjSF+afBRmlEcL+9dRN5nJIdMRy+T2MIT6GQ1Rjec6M0iwEwPLXS1Rv1czML6TA0ld5unWcBaBqgUwBAUgdrR1NMiu7WemotwtA2yLKWWVh3j7E+DUJByjKorxQ3qyr29eD+cVNHuF4j+2zRKrjnli6cBG0wb1raiRTzM8CtMUtDk0wK7xNhgwDAFO/0kJ0yPSqdrr5uCcRhAFJki/oSEtTdm+b8Zn24YMwMQ+mY7UqWVnoaxRUyUxyotcWPmyS7RP1OrVEYilkwH/okHuKU6cYJNU0BACkCRxzq6bIU2aMwrP2xzI5rRcbLlPGlQyzrLs4jj+M6GLOQFi82xZgHG9lniy6VJnMQ8iO0O5Zb6hvsEQxAmCWKMD9tEEYBIAk+AEMYxcEOD2YiexRSEDvTrkuldLXYIE/Ck7otA6vYWVUpMg3hvL2YRezD1nBse+GABc1p0irNwh/2CFLO2d0sUeomT5sN8xwApKAWwiicOtlkj0IKKtlni7LFFKRXUdx6rC0UV6BYMnaT47OLY5TcqGUvWK1FjXg4ipaWpTda7BEkINzBRpYodO0P4wEATKlxdqBDpdPao6zWQomBVgoxDMohhUgeM6uqYvwmx/dfjOxyn+FilQ1fK039XCjHj//V0FebYY/AkDlxB1wRL7Q0BQCkMDYc8gBduiu3K1GjEeIRU4S4dH0cKZBOhcba0GbGzOBj+1jawDxWHcVwrFVG9+tFhDVdB4GtsFz4WRMvQGRmOmbqe/uLzwZdFiKJCwAS0CIewDtOy6bjtDQ0C0RycqwOJWllf+AOlMfa2LkOaz7WEa7XiK3SqfDBeQyhsTUeZ404UA5OqWS/8GM9b8O0aHSafLER2cjQTy2EUQBIgHfgW5oC3pmU9jo9nKmmWeBOvNhukXkSilMNTQ0d8SCmcNlHzAPF2L6ajpgZ7GTDwxBYL/wosJ8cZgiPxBPhYa974gm4YswgjAKAOS0ONtw4XsIV3jUBO9yItdjTiqwWeH98WDnYc8U92Zzt9PZUireN3jqrrhHZonB+brVe+ImZWQ3Ts7NhHVG2zcOtc/SvNAUApAgSmZzglglq3ePcEKTBLYG9xfZgskUhB/HAZ8MsM39f4BVfGzbGafSW2fBS3AO+YLw+vdXCT614iwgwzZjBC+vEDHALCKMAYI5f/W1pCrjDQe5b/cXZgUvEFI3OBYVki8IlrLecNhHHIdvp7YmVlWvdVzHHFYyTFAs//vqcGg6XqNQviDKPwT0gjAKAOVtjBwrGT63T+qMc0ASXHOWY24zPBWyMP7h2HFoF9zFr8W0Z16bEEnoa2Wb3+nmWsgpwiVa2Cz9e7Gppajgzv3YFUc4lgEdBGAUAcxBGIRaNTgXSvcgghVNiblntG39kU8Gtwb1VrbxW8cQJy/eGID5OwDWTrXDp7Ru1ReGWMV0bjkXKe0DIXAiiYMdO6BUAYAzCKFg4zd0M0pZgDgLHpjG8NtlUcKt4UBlf/9FMxLmo62c5X8UQsFvZCpfeV2vpMrgCL1BZLKZQ3gNCFjotq4UgChagVwAAhgaKDji7Ain1haZLJbtt9HPZbtGHcc9/rdH1Y2alUtfPhlh11mOWTsC+Qcz51sLnorzHtJn1+PjUEIUU/lpNUwAAhgZKpdExmy9cTV7QNJMbB1bb76y3RcM4Wcg2EzNmpmesA4Kg3wdaROhnq63F2Dd4xGasDK5NeY9pUrnxdNDbXWEVzQMJ5uqapgAAK/xqH1koYE0dOOrdOqQ4VNMJ0iyEHetTeGH8c2BjZPNiCaMIETZ42/HIHOQFdovDblKcMg7j9bmsFn4qkcU8Jfq2y+/dvEn/QwoQRgHAHE55g9RUehVDD3qbRYqTNX5bUxk47By6BPfSyk5wXCueYFYzzk3mohg+kB9DFpl5Df0OD2C58OOvze6fcfvq3e3yGyFOQXoQRgHAHIRRGJJGb7NIvePVCJF0LFiKl5bbBWEawZ+VaF8rbsYWB57Y2KVHhWvLbPitKKEA92OZae7r81LiYTz42qHd7FC2y8PQxKoHDgDwbqAFMCSVc+C7tUgRSceBz5yzEC9jnfwN08VSfIp5aBIZE3FpI9klq36phBgO8caQ1aGHB5q5aLwYei5JgYxgyGm+bmkKALACYRRydOQviaRLgsTi2BsJB2yjhxg0sj8YLIYzT8ZEXGKdrG0lPFFXFmKwk/12+ppmLorazSN9fvYOPxsypMX/AQBrEEYhZyqdF0l3boIkUzBvLLNKLDNRYTrMZJeZ1yie6IpQFpcYh09WhvbNUtCC6WBpN5iDy/HDlnq7RR4xFEqhFcIoABhi6dADWIzXc47dwTnoDY7dpIIyslUgFlZ1ImOKrrXsMlunRtgvMfok9on0lTj1G+JguTi5wCZla98Wzi/e9/jM+8Bnxr5ACbRCGAUAQ6wceoAUTl/jHLvDBadvKTJK3wuY2uBjUUvKC06NoXAA8CiN4XwYU3RlzMch1sFLPlhbFTQeYXrErHXc9cUsBfzK2U3vo9R05cW2atRfK/SgY73+iqaCAvFzbUtTAIAFNY43jAQv8J3bJuTH+co52fXE2+q9LVUxgyerLcpsK4bYQaVVgN9EnGutBI6pBlmPCppWmcaWJ93D9LAcT77kQ8yF1Zn6Bb7whHRs4PvlplZCTIZxzdktTQEAsfkdTQAj4tl9PLX7fOWc5yr4u5AX9+9+dv/9Iump8LaYBc9cSfrS/ZydCSQ+SvpF0hd6FXDmehVwfu/a4xHqoJ1fIj/nV+7nzwx/iIC3BXM3bn+KeO2nzvvwqK2rxfbHR/ngfn6KIEyoM//EoO6MHYBH+KRX4fKDpB8jX/vJ2c0PkezmzPkg3l/5yc3zX7hnqCR97z6fA//vr8H7Mrb3JvTfaufX1Xq74Pwk6S+uzV4Y9gAAAO+DMApj5qnjGHunstapWOo/izPXCAPnz53g97NBMHwtc/dMdRDknxM+u3x2z/apx3n+k16zNOZ6LUXwdcbBPcIBWNiNmAG+58V9Kjdunx68lrcBjP3H7cejNnxuYIe8fR9yjoHx2bZw3Mfkk+KWLfreXeuz80HCd+A7vS7g/kHHBaI6eK7vO9d6dtd50esCcPfvXgbul1nwvs8Df06Bf/oeP+kohn5mqAMAANwGwihMCS8GPvUEx9757IqL9ZWBhA9eX/Sa1fAcON73Osldp/jDjUHNUxCwhH9+775eJH2j1xqtvm0eCRxiZWX1tVNlIEjAtPEBvoV48KRjRvYjY/aX4B2A+5gHtvsR+9YEdjUmNbYNIuPnfu9jPEe+9i3+yXtzu9/u/82Z+/zoPqGfVOs1o7QrMl67WOzbJ9w9dK8f17U1s+A+++7xljnEt/dfz/i0AAAAcCMIowDnnUrvxIbO61cdMSL8nfrG6/c5zrfwEnx+CRz4GI78i14zDxbuuT5GaOeXyP1mkaUF8HRDMH0rsQTNl8AewX3MAoHhEf7gfv458v1RJgSs7Juf12MKoy86iq7Vg/P9Ing3n6787pczv9sVSGc6CpPh34U+3OIdP86LkiFfdOaMW0VPf/1PwXd8xscBAABIw++CifuF5gDodbal97fUVjpmLHzl/rubdXoLoVPcdZRfEr2vP+tYy+sRwsysmNTYLjDALy74shsxg1IvRHyIYJt88A2P2Y9HxaFYAus5u/lEV0FELOuM+trH1YPzsvc5/hLJnj9d8S5Vnc8lP66+4x6eO/7cE+83AABAPvwucOp/oTkA7uZF/RkLla4TFl+Un8D3ZeDU5ygc+PsjowpiYyWMxl4cQBh9nL9mel9zI7sJ08bbs9rID/Jj96mwdrnkg4XZn5cyQbu7dZ4YbgAAAGXAVnqA4Zzt3KkyD8xzvz8oFy+2f5np/fmAe05X3c1XgY3OjXAnDwepQEws64yOtfZxmHUqxT2UDwAAADLgtzQBACQK8GNTB4EeQEz8mKpoitEyM7RNj1JlfG9QPk+dORQAAABg0iCMAoAlVuJDmJFCRhXEJuYJywC3wjZ6sMRnxMc+vM3PxV/QxAAAAFASCKMAUCIIB2BJKLZXBtePsdUU8Xa8eGHprzQFGPBkZNueO/MzAAAAQBEgjAKAJbX7+WJ0fbJFwYon97MyuOacsT8aLMqFsPADlrx05ufYcCgcAAAAFAXCKACk4JfI17OsXQpgGeT7MVvTtKMaHxa2CPEbLLCaN8kYBQAAgCL5rY6n7uKAA0ApeDHiF5oCjPhkFOQjHsB7VDQBFMhnxjAAAACUyG8D54UtWwAAALb4g0++pCngDN4ve6IpwIgX97OOfN2nzhh+5N6+opsAAAAgBWylB4ASQVSCUnlyP8kYBYChqNzP2EkRnyPFujTGAAAgAElEQVTYtxf3k1qlAAAAkASEUQAoOah7oinACB+cf2V0XYRRABia2GW0fEY8oiYAAAAUA8IoAADAW16MAnyr6wIAAAAAAMCNIIwCAAAAAAAAAADA5EAYBQAAAAAAAAAAgMmBMAoAlviDHT7QFAAAAAAAAACQEwijAGDJZ5oAAABgEvhF0BeaAgAAAEoBYRQAAAAAAB5l7n4+0xQAAABQCgijAGDJSydYAigtwH+JfN3a/UQ4AICxMcO+AQAAQGkgjAKAJS+dYMkqCAOwGlu/GF2fMhMAMAQs+gAAAAAEIIwCQIl86gR4AABj4TP2DQzxiz4vxuMXAAAAoAgQRgHAGp89UtMUUBBfGgX5VtlaMD6bSUY8lAS2DQAAAIoEYRQArCF7BEqkcj9jbwuNtUUfEYL2A8iJWLatoikBAAAgJQijAGDNi/sZc1uoF1u/onnBOMiPTaxMVOvtsFPp3xzbz4+Nim4CA+aRbJAVftx/oqsAAAAgBQijAGCNzx6JKTSx1RSs8eLBk1HQzwElwxHTbljUA/25M1YALMb/z5Gv+yVNCwAAACWCMAoA1ry4nxbZnQijYEHlflpkVOWerTUFfB/EEKctF2m+oKugoHHl7eYT4x4AAABKAmEUAN7j0YD/JdJ1QrwYwanNYBngPxu+T49cuza8v6n1c46LK0/YNzDEKht+KvcHAAAAIwNhFADO8SlScP7iftYR7y3MtiNrFGJTd8Zu7Os+G7wHcD1Prm9nkppI9s1CxMS2gQVkrQMAAAAEIIyeOopLkaEB0OXRbW0vRoE+WaNghS/7ELsGX9XzTtwDgtnj/OB+/vHB61jUUH7CtoERM8XJWj/nR8ewb7GuAwAAAHAVCKOvrCTtgp8tTQIQNTi3CPR90FTRVWAU4McWDmIJrv7+OLX5fn6KZJNeOn0bC4tDnQCsbJt0FFxfMrkOAAAAwFUgjL5uo1u6/35yP7+nWQCiBuaWJzd/RVdB5OC+6swJsYglSnA4SRyb9OL+u37gOv4aVeT7eza6LkybOpIN6hJrnLLNHwDemxfx+wEgOgijr4Hvk6RvJX0t6Rv3AcABeSXcencvXsT80uD+yKiCEoSDmNfmcJI4vAQ2Ljc7hH0DC7ygEDvbvIpkk6y2+QNA+XyOMGcDAPSCMPoaGH0t6aP78086brEDmDqxgnOLIN9fs6abICIfIgX4XcJMqJcHr1XRTdnYt8+yzYj/QDdBROrO2I9t314yuQ4AAADA1SCMAsAlchZGX0QdPohP7X5+MrruU4RrVRGvNWX+mpmdtL4mTJu5XjOtPsuufvIvD17ny0jXAQAAALgahFEAuESsOp4v7mdYvzEGT+5nTVdBBGay26Ye6+CluvNOwf18jmTfPkW6Tsizu79wTALEsB1PGV/b8nAoAAAAgF5+K7ajAsDl4DyWfXjqBD4x8IIE200hBotg3Mc+/KPuvAf3UrmfL3RXNPs2i3Sd2H7UE/4ZROQP7udfIl+3UrwsdrbSAwAAQHJ+q3hbyQBgfDwFgU8s8WBucH81XQUR8AJ7zsKB1eEpU+Qlkk16Cq4T81AIFn4gFjPZZYz6BaWfItwjhy8BAABActhKDwDXBv31g9eJtS0/5Fmv4sZMiKOQT4Dfpe68S4/AVtN4vCjOdvWwZmNMO/RkcE2Ytm3zc2ZMYmWiWpUxAQAAALgIwigAvIcP+D9Euk7sIP+pE5wB3MNCrwLZi+KLjv7diZHlWXfeJ4hjl2JljX6IfG8vblwu6Cp4AKtt9DEzUbFtAAAAMAgIowDwHp86QcsjQb4PpKqI9+cDPYQDeAQvHPxkcO1Ymahh/b0XuiyqffsQ6Tp15Pv7qTM+AW5lJvts+BiZqP4d/JkuAwAAgJQgjALAezy5n3M9Lmg+dYKpGPyk162slTi9Ge7HCwexM6p83clwu/W9+PeGjCob+5aLnQz51BmfAPfathfZZcM/RbKV2DcAAABIzm91XOH9iuYAgB4+K56g+cnI3vgsmH+hu+AOwm30TwbXDsfoI8Tckg+v+P5+9OCkz0EfxxQx/cIP2+nhXv7ofv7J4Np1JJsUcwEJAAAA4CZCYXRGcwDAGWJtN33qBFOx+LP7iXAA92C5jf4PnXfoEerOewRxiFX/2OoU+Y+dsQRwLVUwrmPbt/DQskdtErYNAAAABqWW9KukLU0BAGeYOztxiHCtX92ninyPe3fdhu6CG4N7PyZjl2KogmvPMnoH4ZSVa9tVRv3d1/exrwvjp3XjZmNw7cZdexfhWht3rSVdBgBnqIVmAQBGUGMUAK4hPB25fvBaT4GDExO/TZDt9HBrcO/HeOwtnOE2+s8RrwVxiXVw0kswhmJmr4djs6G74Ab8fPhng2v7zOgYdZmxbwAAADAotV5XX/Y0BQBcYK04WVVL2WSwhJl/Nd0FV2KZabyLeO2dyIi2JFYmu5V9a/DVILMx423no5n2C8Y2AFxBLTJGASBRQAAAYB28VLLbFurF2zXdBTc42QeDsRhznM/EVmprtoojPFvZt5kbpyz8wLV44dJie3rM0h6xFl0BYBo+G8IoAJiBMAoAt9iK6sHrWGW/VbKrYQrjw1JIbxUvc7BRvFp+0E/MTE8vsi6NxhRBIVwrIFgs+kjHurwxbKcX/Od0GwBcYMEcCADWkIkCANcQ64CEpaFzQ9YoXEMlWxE95hZ9DiaxJ2YGXCMbITscszVdBhfw4nxrdH1v3x6tpbsQh8oBwHW0xnYNAOBvDhSONgCkCPjDAL8yFA8qugzO4AV0C3G+jhjszxjPyYgl9oR9Ni9o3MI4CO3PzPj6scYzC5kA8B6tEEYBwBiEUQC4NeCvHrzWxtDBQTyAS1SyzbyLWTOvEdvoUxFze7CV4GM9dqF89sbiQcyx7bfRL+g2AHiHVgijAGAM2/QAILW9sNxCh3gA1wT2W+OxVzE/F0XM7fS17LL2vICLWA5dGtlmi8a0b5xGDwD3+G74QwBgRitWYADgtsArRlAesw7jOfGAoAvOBfa14XwaQ3RlG316Ym2nt7Rv4Qn1DV0GwbhIlS26jXgtTqMHgGtghysAmOMDOWr8AMA1wVcsscbbnp3RfR7Eog+cspFtmYWYgtVSZAamJuZ2esv+87bTKjMQyvXlrRYDwzm1jmgrOY0eAK4BYRQAzKlFPT4AuB4vLj2a6RE70OrSBOJBRbcx18k2A9OPt1jCxE5kBaZmHoyRRwVHa/u2Fxl38EoVjFurep1txFiBbfQAcCsIowCQLBA40BQAkDiosT4oaSsWfuB0m6mVkOSvH6P+VUyBDm4jpiDt7dvG4D5rUUsZ0sxzsUX+WIurADAdvI9FljkAmOKdawCAa4h1mmxlHNyH16dg+3QJa85aCI2N4m5ttjrVHN4n5hb40P5UBve6Nh7XUM54tdwZ0SreYii1kwHgHtAqACAJrMIAwC3ErMVnnTXaii31U6aW/TbTmIeeWG/BhvfbP6ZwYylyh2OF7LvpUQX9vzR8H2LWTm5E7WQAuB2EUQBIAnU7AOAWYm71rWS/JXRLMDZJUghHPtCPlS3qr0f9veGIeWJ2aCsrg3tdiC31U/fdLUvFtJG/g9rJAHAPCKMAkNS5WtAUAHBjgBMjU8U6a7QSp9RPeYzuZLfVeB95XO0RDganVtza697HsiqNsBKn1E+NVvY7IcJ5s45wvTnjFADuINzJAQCQxMFCMACAa2kUL7Otkn3WE5lV02IdBOFz43cgVqBfIxxkQ0yBOswatRiLMx0XAThobvyE46kx/J7YC5bUTgaAR3wjdn0BgDmtEEYB4HZiHcIkHbOeLB2fUCyr6L7R0si+rmh40n2sudNnFlIvcnhiHsIU2h4r4XIu6o1OgdDubAy/JxRf60j3bbk4AADjpRYLfwCQiBZnGgAesB0xnJXYhzyc+44U26thOMLM4GWCsR+rFmglTmvOidiHYIX9Wxvdc6M0mYQwHNvA7swSfE+s7M6YvgIATIsa+wEAGBwAyF08iBns+ywty63ElY6CB1v6xsU8Ud+GY6iJdE22meZH7CxPnxVvebDWSmTmjZWwlqxl34aLS1UkPyHm7hIAmBa10CkAAIMDAIWIB7G29fltgpYZ7HUQ+LV04SgIRVHruWwT+XsqUf82R8J+qSJcLxSILO1Oivq6kJZGabKBLUqE+AXPPd0IAA/YP3QKADCnxuAAQCbiQa00IlGqQBPsSVkiIRyfsUQn6/qT8HjfxMrk9XbHss5x+D5wkNd4fPQUC3mt4m7VJ1sUAGLZpZamAABrqsCBBgAYWjzw17M+gTLcdtrQjUUSikDWdffCbKpVxGvGrGUJNv5RzNqvvn7jJtF7QT3lcklVHsR/V+xD61qRLQoAcexIS1MAQAq8MwQA8Ih4UEcK6lNsOZXYdloy3cw46/4La0TGEpq8w0+2aL7EPojGQoB6z44ijpbHvNN/1nhbujEYf2SLAsCjflJLUwBAChBGAeARYm8HDg+AmCe6d8TRckgtitaKX+JhIWqLlkAoZFaRAz3rre5dcQ1xtJwxl7LfLMYjJUIAIKZ9amkKAEgBwigAPEKl+CLPRmmyZVKLbFBWf1lsoVdwTU6izx8LkSd2ht45uiJbRXdmTWpRNBT+m4z9AQCYJn63TktTAEAKfICGIAAAjzovsYTMcCveyvjeu2IbwVyeDCFie1Es5hb6WhyOUxKV4gs9oSC1NL7/UGxj8SdfUouioT2NKdCnqKMLANNgKxZZAACjAwAFEQqZsQL9cLvxIsH9b8WBTCWIBqnEnUY2mU+x61aCPbEXfuTsZMrMZzLj86VW+rIHK8VfoKkVv/QEAEwXNAoAwOgAQHEsDQIti+DtEmuly+SC+0SDFAF3KMS2Ea/bBOMZ4aAcLBZ+Qv8rdYYgiz/50AR9kkoUtVp09ONrRbcCQMQ5sqYpAACjAwAl4QOjtcE1d4meIRRHyeqbnmgQCkjbyNf1pWtaurY4LBZ+QsF1nWhsb4J3inE4LKsB5ppw0WeV+fsBANMGjQIABjE6C5oCAB6klk09vlT1RrtBHic6D0dXoJ4l/t7YAb4XQfZ0bbFY1GQMbWaqLPVQkNtg35LTFahXCb/XYqHRKqMaAKYNwigAJKUVmQMAED/ojnlgTbj1r0n0HAud1rXEMUsfvKeem0JBPGZ/z8VJzWPAqh+XA4yPJvjOvag7mnIM7TVMSYONbBZ9/HV3dC8ARMT74MxPAGDCbzp/biV9L+kHIY4CwOP4LcOzyHZl5QSEz5K+lvScKIhdB04ZdtKWhY7ZoZ8lfSvpp4Tf7TMBv5X0MeK1d24M/STpm4jv2VyvQtqXil+z9EXSLwn7PvYzfJb0s3uOJ/czph16kfR79z0xWOtVJEtt3zau3T87+/YjZsiMpY7ZoS/OFjwn+m4/buXGbazvrXUsOfK1e9cAAGLw6xntAgDAhFZkjAJAXMIMz5grvVYZL5eY6XRb91YcnGPRxuH23p3SZgiE5Rpi1/prI4/ZWqfbcPlc99kpTnZeWCt2FfkdCLc5p7RvW7G13rqNNwO2cSObDFWrdwEAQIHdAgAwgYxRAEjBRq8C6bNeM1RiBvFzd92vFS9j65rgcqVjNiPZVXGo9SpGVu7PP7q2TdWvlY5C1JMbU7GY67i99NEsVC/Qh/XAn909/1XxM7XmSivevCheVmd4/x90uj39RdJ3eiwTuZZNllyYbZ/avoXZjKmztcdMmAUvN/ZSzhuNjos9sf18q+xpAACJjFEASIyvbbWhKQAgIuGBDDGzSarguqntVqXT7Cov0sJ94yPMEh2ijqt1ll6s0+3DjFaf1VoxhG7q50antR0ftUkWtZS7fb1O3E5zndb3JXv0sbkizBJNnQVvPZZqUTcZAGwhYxQAklJHCtwAALosZHeYzVDigfS6oBQKVSsEhJtodCpSDSHAhKKoRWmGNtK1w7E+hLgyJrpi/PrBa+1ls0Azj3SPMdroIE4af3R+aAe4h9BubAzGiMWiJwBACMIoACSlFsIoANjh63PGzqxqBhQPpLcZQQdRjuSa+SbMuN1rmGyjrig6N3hO/4yLB67TFUUR3/OyHaGA2WR6j488W5g9uhOZgde89+GCz1A7CqztxgabBAAJfGzvJwIAJHPkEEYBwArLzKpQPBgqc6UbDO8VXyQZg4MbHmA1pIhsLYqG2VSPClpDHMYzFULb8Yh43QZjqTK8x/VA7dTNfqR8SP8csO3Yt6HmAGtRdCmbgxUBANAnAADDAwCjJsysir0tMxQPmgGfsdFbgXSpaQtalU4F0aHrY1qLotJRIHlUlGhlJ7jB2zaeZdDn79m39YDvzarnPa6Z197YtyHLqliLopbzOAAA+gQADB64+sAAAMAKy0yTRsNnjob3EgqkB3dP1cQc2q3yEUSlNKJoG+n6teJkM8L7+DHxSDZ7Jduax42GF0f9c3aFwO0Ex2iO9s1aFLXc+QEAcM4PQhgFgKRQ3BgAUuBrk8WuN5qTeBDez74TPG9GLCLM9Cp+7zMTDPy9WYuiteJkLocCxBqTYU6YBbfIoP9LsG+V3gqkPkO+Guk4mZ2x6TnYtxS1iLeirAcApMPPqQijAJAUhFEASBVc7gydnZzEA89Cp4c0eXFurXGIpOeeL5cs2RSiaChMPDruLBcPoJ9WcbbUt7Ktv5ibfavce37Q2wWgZiTjd6G3InBO9i0cE1ai5crYfgIAdKmFMAoAA4AwCgCpiCkivRcobjMKziu9Cid7nRdJSxESvFjQFUR2yksQCceaVVAfCq+7iGMXASItMbbUS0dh+2D0HuRq3xq93V7u23NZ0HieFWTfwrGwTjDeGswEACRiKXbOAMAAIIwCQEoWst92Gm4trDJ7fn9ox75HSNjpNUMnJ6G0dk7qpud+98qzhmrdGQNWwowXgx4VwkIRt8VEDPJOxiqFEArlFu/wQvZbp++lcrZid8ZWeKG0fuA7fhPxfr0QurpwzyvlJ+yGWaxrw3fCj7MVJgIAEtLiDwHAEPjgnAwVAEjt9Pwqm9ONU2QLxrrPc0G5D8y3rr0a11a3CCH/uaR/vuL3Knft2n3XWv0ZYDmLBZ5G9ttLQ3Hi0fFlXWICbrNJBz0m9FtnxZdi3yodF1QOZ2zJzv3/Vq8CZX3l+72S9E/u8++ubK/a3U/r3rP9hXvK1b7NOnZ5adh3vs84bAkAhpqPW5oCAFKyNRQnAADOEUtYuhTchYJjk3l7hNlL50TJbgC/lfQ/S/rvJf13kv4g6b+R9KOk/0nS/yrpf5H0P+godvrP4Yrv8ELo2rVfVciYstxeKh23ecUYV+F7QF3RPPyhR8sizJUmoy+sn5t7zeK5jkLp/gq74+3U2gXH/rPt+T3//zbBv9tdad+2yi9L/5r+tprPUmQ9AwBcohXCKAAMGAjUNAUAJCYM9CqjIG+jNGKZVTDcBILAe8H+f5T0/7jPf7xSGPDtvw1Egla3Z6cOSdVpG0tnulE8UTS8FnNwHuMo1vbhsG+tMvtmCce9xb3Xrm38YtA1guk9H59577NTG5W1S6oJxuXe+N6t52QAgPdYG8+dAAC9IIwCwJDBcYrslFanmZbzEbRb7T4LnWZUrXtEgVbH2n7+M5byKWHNRevMuUbxMgGpK5rvePJ9vIg4XpoEQaTf+lx6ll9o35Yd+7Zyn3/vPt/otVxIo2O5kXokPu2s07fWB25Z7+IAAECbAACMDwDAmeAvxWEitU4FtLGuRNc6Znz+W0n/2YjHzUqngndl+H2hYLaOcO8+O466ovmxUjyBKBS2GsN7bnS6GDJWn+7v3Oc3wWeMhFvnUyyehOOUeAAA0CYAYHKQrg4AOQSBKcTR7uEVY8iumup4CUWDVcLxGaNmpC/vsGf8ZUvMTPZU4uhcp9vRW7qxSFqdljmxFgdSjU8AgFvm35qmAIAhHDAcaAAYklTiaF/guaD5ixUNFgnHZQxRNGY2ItgRZrLHOJk7lfjUrau8Y5wVNQemXrhDFAWA3PA2CQBgkCCzpSkAIIPAMJU42s06JHs0b+oB+qvujMdHaYQIUZo9ipmVnFKECmvv+vvHvuXvi6cs9YIoCgA5gjAKAIM6Yy1NAQAZkFIc7QtICRDzoltLNFWGb6N4NUW743pFtxZDOA5i2IaUYlQ3e3SPfcuOWqflD7ZKcxo8oigA5BoD+PkKACApXhRoaQoAyMgxSimOdrNHt2L7aQ40Os16WytN1lujuKJopbjbsiEtoTAfwy6EolQK36vWW/GtplsHpdKpaJ2ypAuiKADkSi0OpgSAgVhggAAgQ0JxdK80QmUrtp/m4hiHQk7KU7aXiiuKzhT3IB8YBi8mxaoNu4o8zu6xb2ulyU6EU3vQBn2Qep5BFAWAnFkmnhcBAE4CUIRRAMiRMJMz1WE1ld5m8hBAppuPtkpfa69PNIjllIfjt6KLi2XW6csYQlaj9DWOq844RyBNN35anQrT24TtPuvYVuY0AMgRv2jY0hQAMEQgijAKADkHlKEgkSqgq/U2a5Fg0q6tw6A9dRZVtxZjrH6OnWUI+diiWNm/jU5PkE815uc97xwCqc2YaXUqiO6UtpRBdw5d0C0AkCl+XsJOAcAgASnCKADkHlyGwlWb8LuXepvl09Al0eafocWZSjbCe5iVh4M/HirFr38clg1JLaLn8A6OdZy0nbljiMW1IccWAMCteH+spikAYIjA1Dv4AAA5093qnDKjMIcgdyw0ykOMqY1EA+r4jRuLw+G6ZUMWA7wL3XdyQ3B6Vz92SxUMNVc0nXFa0T0AkDnebgIAYIQAAN4J9n4dKNjrE0gPet32TdB5mcq13b7TdkNlpy2NxhGi6DSwEEe7dSDbAZ6r1lthb8dYvmpe6grLWw2XLb7q3AeHvgFA7szQJABgaDBCAFAStU4z/VIHnzO9Cmv7nkC4IQg9YaHTMgg+g6odqJ26ZRliZh4jik6LUByNeYJuOI42A70nlbuPvkUgtmMf+7/bRn4sDNVGYT1RX6sZAKAU355drAAwKAijAFAaVSYBYJ/w54PjhaYnklZ6FQU3PYLB0PVZ5zoVs2OeeI8oOk0sMkel023Qew0rtPUtAu3c31cT7O9VT3vsXXsMae8XGnbBEADgEWpx7gkADAzCKACUykrDba0Pqc4ICD7rqxmpiFC5AHylU6E6FAxyKDWw7NxTTKEJUXTaWImjlkL+PSz0dpu9f+ZW48wknQX2rWvbfSmQOoN77M6DZPUCQGkshDAKAAPDCXAAULozFWbKNAPfz7msIi/KrVWuUDrXq0CzPvN83qldZhKcVzqt/Rdza/JMiKJwfC8sxNFu6Ycc6kXOdMwKH5t980Joq7c1Q0MxdJHRuAvtMFvnAaBUWg1XXxsAQAqcv5qmAIBCqWQngD16X8szIoIXEjbKR0jsUgciwUHnhdCV8isd0BXMY2bcdWv5NbyCk8dKHJVOM55z2ibtRdL1GfuwU95CaZgRujtj33aBfctRRPBjAh8eAErG27SWpgCAoUAYBYCxOVa51lmrdT4byd+zF0rvscnVg/fWGN9fCrpZdrG3llY6iigIEhDSFUfnka8dine5LP507/E9+7F1v9O4d+eWZ/hd8PlPJP2rO23ctULoLNMxlvs4AAC4139vaQoAGArvwFKoHQDGIk6EgeNW+W7rrHXMKD2XkXnps+18doFjWUv6LyX9ayci/KeS/skF/d3fP/cpbWvsstOOrcHYCrNQqeUHfWNkbzhGWuW9+NO1b60uZ5yHguTW2cL2zGfbY//WgT0Lxddt5+8vfW/OQmipfQ8AcAu+NNGSpgCAoR2tlqYAgBHaNh9ElmDjfA3Pjc7X8LT6eGGidQF3VVBfz3UqgFgcQNLoNBuw4hWDM4SlFiwErJIWf7r37Wt4bvT+wkzszz6wcbXKybSsO/MBWaIAMDbYwQoA2YgHLU0BACOjK5jtR+R0zdyzhJ9ljxDQBp9Fz78pvQ1anQrgFtkG4XcgSsC1YzO0Pdbj0vtxs0Lbytujxn3+Wa8Z7uHnGx0z3r0g3Ab/tnKfro2bFTyG1iJLFADGD8IoAAxOK4RRABg3jU63cm40zow/Lyz8k6R/kPQFffoQ3Xqla14luJG18fip9HbxpxlpW/5G0t/ptTTIv9FreZCx0i0LshILMgAwXhBGAWBwFjquvAMAjJWZCy5/JdgsmlppsoC725Ubmh7uJMzkjn1ifejL7TXO7Pip2bd9Z7xY9WPlbCnjBACGxts8fHIAGNQJQxgFgKHw2yjb4FPLLqPTB4Pd+qM4Y3kzP9NvFizEIUtQ5phqdZppiPBVji/etW/Wh5D4hcI1Ng4ABsbbPgCAQZ0xvyoNAJDS9oTblM8dCNQYfv9OCKS5U+l0O7IP5K36qZV9dh9Mk24WspXw5WvvHhLZUnhsHtoqTa3YWqc1Wvs+G8YJAAzg5yGMAkAWYIwAIBXduo0+aF+7gLAvcLM4ZdzT6HTrIgJpPoJBnyBaGY7LragnCmntn+VhXn0C6V6vgiz2bVganYrklvZtpn4x9ODG37YzRqznXACArr/H7lUAyALqegBACroZU5cCwb6g3nJrYaO3AulK4zykKWcWPUH82rgf5jrd5tzQDWBMWHd0L1sRqs+WHsQW6tRUF/rByr51Szis3d9VV9zfwf0uAIC134cwCgBZwElwAGBNV3y6NiBPmWElnc/kwT7aMdOrULRXWkFUert1HqEIUtrEcMy3Cb6zz77tRBapdZt3d0nsZbszoXvY4C22bSYOngOAdLQJ50AAgIt4h21JUwCAAZWOoui9dRtTZlhJ/bXffJ0+BIQ4zPUqfnYzqFrZC6JVp3839CsMQHfhZ6s0Wep1z7sX1pjkXXjctq3OtO8iwXeHwubqzv4MS5mwYAQA6BAAMHpasVIDAHaBvw/SHj3MZogMq0r94h1ZpPe3Z192aErRuRFb5yEvumMyVYA4c9/dV4MyhYg3JrwY2rVtPju0SujPx9oKv/QFCLUAABjUSURBVNbtuzwAAG7Bxwj41AAwOMvACQYAiBl074LgcBbpmmGG1S5RwOkFhF1P0LsiaLxI5eaZbtulrnNY6VQASjV2AO4Zn9vE4/O99xSR9C3nxNDUi2fdLNGYGfA7IY4CgJ1vzSHQAJANtSh6DADx2RoGVI2GybDyQWjfNlRE0iOV+kWWobbrLjv91dJFkCk5jNX3BL+piqR+gWzd0zahbUtJq7hZon3PHGvXBwBAnwaxoykAICejtKcpACASKbbgVXqbAZhalFyoXyQ9BEFyNZE+X6hfTBnygJdap+LsVgjXkD9d27bXcNsML4mkY69JOgvsWt8iTygUD2Hbwj6xrJM802mdcACAGLBrFQCygzR2AIjt6PyqNJlFfRlWQwTq50TSUERYajx1lGrX1n31CYc+yKXS6eEhqbOKAWLZlEPnnaoGvJ9zIqkXzNoR2Lf37NrQzznrsW2LRH3vx+KaVxMAIrASu3gAIDMQRgEgBk1gT5qE31vptPboXsMeqjPXqxC3Vb9Q6rMXV+4+c89irHTMnLokGKw07DbbmXOwwzZfi+2fUC6zIHj0QlibwZieu/vYFWzfbrVrQ7d517atEt9THXw3C00A8Cje7lLDGgCywa/+s8UQAB4JlIfOKFnoNJtpqzwymLxQeq42XRiEb1wAvHD3fm3gWzkR4t+7zzd33GPtrtG6e91euNe9+51GeZQLaDqiQS59DxDLhoTv40HDLv6EvFd7s8++Ne79nN/w/P/sPv9O0u+u/He1+yw6du3wjl3LQQi9NK8N5a+HO0KwrwDwCJxIDwDJ+c07/98HkF9LeqK5AOCOwNif8v3kbMmQtJL+JQhsP0r6QdJLRu3lRYEP7ud7QfhnSc/vXHP+wO9f892f3M8n93c50Ej6Xkdx9sX19UdeSxghPsMx5/FeOdtyi327ZLM+ueuEwfOLpJ8k/ez+/JX7nkq3LdQ8ZWrX5J73++C5P0v6LoO+9gtinyX9PqN5FQDKwu9W/fvMbC8ATBifhVDTFADwgA3ZK58sm0qntdh8JmuVaRt6sXSpY427c9tULT57951b9/2+Hmqu7dXoNIsqpww6AGu6tZX3mY9/b98aZ182ztbsje3armPX2sztmp+7NsqvfEIIJ9UDwKNQyg8AkvNexujKOdk/iALIAHAb3n581mum6HNm9+cPDKmDv/uovDJIr32OSwHoP0j6t5L+D0n/hV4zqP7DO9d8KnC8NTrNEP0s6U+SfhQZBzAtZs72htnxLyo3Y7rSW8HSZ7Z/6Py9f+/V8/fPhfZn5WxbU8BcVekoin6U9C2vIwDc6NPunG37R5oDAHKhFafCAcDtLDTMYUv3UOttzcycM0hv5e8k/Xak48wLQN0M0VZkKwH0HTqWewbpPfa7ds/6r3V9jdFSnq2k3Q3hfZcy/wNAnvZjS1MAQE4sNeyBKQBQHlUQiK8Kc8a6AikH9eQ7xlq9FXxaIYgCdOkTSP0CQkXzZMdC5S/WtcE44wBXALjFF0cYBQCMEwAUT1hjrETmepuls9frQhGi2/Bz0qanbxqaBuBd/Cnx3fqda7EAlEPfLM/0TVXoM21FvVEAuI1W5SVWAMBEgtCSBQ4AGMahOaj8TKTKOWbdLCtEhPT90CcYbPWaWQUAt9PobVYiC0Dp8QtxY8zmnanM3SMAMHwc0dIUAJAbnAwHANdQB/ZiTIKVz7La9YgIYwhec6XR2+zQgwuwaXOAOPQJcz5TkYUHGyr1L/bsnN0bkzAd1huv6XoAeIeVEEYBIFO8Q0MgCgDnmAVB3phrEp8TEXYu0MVOPh5E97XvdoSCAUBuNrzR2wUgnyWPSPoYlZsjzrXvmOtwroJnxYYDwCX8ToaapgAADBQAlIbP7NtPKPBp9Daj0YukrThw4hq8GNMnhpKRCzAMc72KWd2MxlAkReC6rh37xNBf3dzRTKQdZ0EbbBgWAIDuAAAl4g8hWdIUANBDuFVuimKgF/f6RFIvJDRC4AvFglZv6xt6MXQlRGWAnN7XPpHUZ3K3vK9/o9Jxoedce021hutc4yy1AwBxOUw4ngCAzGlF4XQA6Cc8XKGlOS5mQHrhzwulU3H6aicGbM60CRm2AGXgRdK+DMiDjkJpPaH2WOq8EHrQtDJDr40n2FIPAOfgbBMAyBafDbalKQCgg8+S3NEUZwPnVv3ZkWEW0doF2LXKziyt3XOcE0/IogUYB5UuZ0f6eSG0bSWLYbV73tUV9rwV20DPwZZ6ALg0r3g/EQAgKb+5MrDfSfos6e9pMgBwLILg5veSnmmSq4LrWtJXVwgFT+7nJ2d/n4OfQz+D//mFmyMqnRc5X9yz/Ox+Mk4AxhnQ1pI+OJswv2APXpxdewnsQy7PULl7n7lnuWTbPnds2xPD4OqYQpK+kfQTTQIAgV+5dbb0a5oDAFLymyt/z6e0/71zBAFg2vhT6GeSfhDb6B8NxGtJXwb//R6hUPpz8GcvNHQdzdoFoP+npP9P0v/V05/zIHD1gu2Hzn2+x4u7j1AEZc4AmOYcMQ9s2yWxVIHtepb0Vx1Fxqd3vmcu6X+T9P9eGXSHNu7LwLa9Z99C2/Yc2Fu4nVbS925u+EfmCABw+B1HHyV9S3MAQEquFUa3zqH8WqyIA8BxK/SzXrNFwUZU8AG7D+BD0fI9vNAQip5yQeiL7q/p+Rxc45fgz8wNAPAe88C2vZeR2Wd3FNge6bh48yzpf5T0f0v6V5L+W72fzd6lu+CEbbNj5/rnJ71mjgIArPQqjpJwAQDJuVYY9SIIhgoAah1rDrNYMpy4MAt+ftX5862EW/S9KKBAGMhhCz8AjHte8TbslkzOWwjt2c8du8Y8hh8BAMPiE7EoswEAyfndlb/nV+a/pMkAJs/a/fyRYGYwrgnmvUj6D5L+a0n/u6T/StK/kfQf6DsAyAhvj84Fw3WPbZNeM0br4N8/65jJLrGok3N//6jX7LC1XneesKUeYNr4nUwvNAUA5EotTqYHgNeM8V////bu9jiS5DgAaEoMKfSDERwP2B4IHrA94JjQJowHbFmAkAUjD0a0ADgL5s4CgBZgacHpB7rUhcHHAoP5qKp+L2JjN+7iuERiupGVlVkV8/milO/fI+I/4nkj7A/TL4AWDNNi+o/Tu+7fhKQa6azy38M0GngfPL8LfhcKoGSdlxV4D2TvgbVwAADfsM7yihvhgMXqp/fAXiiA0qXEpRMKWKS70DkOAJzOTm4Bi7eZ3gNboQBKl4oivVDA4uRdHZ1wAAAn0EXE05RfDMIBi3QbjtUAKrH1woJFcg4YAHAu45RjPIXzy2GJNGAB1SUtt0IBi3z2XbgEAJzDg3UGLFbqGu+EAihdGqV1BhAsR5clKy5cAgDOoQ8XMcESuZEeqDJheRAKWIx0hIYNEQDgnFzEBMvTe+6B2tjNgeUlKro3AIBz67K8w5QKLEO6kX4nFEAt0vk/vVBA89JB6FuhAAAuYAwTarDEZ34UCqAWacRlIxTQtCHcEAsAXNYq5kaMUTigeakRYxAKoBZj6CCDJbAoAQCuYQibs7C0NUcvFEAt+nA4MrRujHmMzYIEALg0x/nAMrjDBKjOyssLmn/Gn8JICwBwPX225uiEA5p+zp0pDFTnSZICzRolKABAAdLdBibVoE1upAeqlUZbeqGApnQxd2d4vgEAeQlwLttwpwFQqbR7OwgFNJmc6MwAAEpwO+Ume6GA5uzDxgdQqTHs7EBrutCVAQCUxdnn0O6z7e4SoAj/KgRAPHdkRET8T0TcCwcAUIAfEfHf05//JhzQjJvp91+FArg2hVGgj4j19Of/Eg4AoCBjRDzG83TLKBzQzPojQmEUqNQQziGElqQL1bZCAQAUvP54iucRXKBu7i0BqnaTJSZA3fqYz/fphAMAKNRDuOcAWpHODr4RCsCLDLim1C16KxQAQMH6mJszOuGAanXh4iWgAan1fSMUUK11GEsDAOrh+B9oZw3iaD6gaoOXGVTPSBoAUJM+HAEEtRutQYAWdFlSotMM6jOEblEAoD66RqGNZ3gtFEDt9l5oUC3dogBAjbqYGzR64YDquK8EaMZtuLQFarSZnt2H0C0KANRnG471ghqtwsVLQEPSocl7oYCqkpG0SzsIBwBQoS50jUKN+rCpATQk3+3RdQZ1GGPuFgUAqFWaXlNggfrWIs4IBpqRDk4ehAKKp1sUAJDXANey88wCrRnDjg/UwnlcAECLaxGTMFAHFy8BzeklI1CFLpzFBQC0Rdco1ONmelafhAJojV0fKJ9uUQCgRWPMjRruPYDyn1XTpkBz0jkhG6GAIvUxd4t2wgEANOZhynNGoYBi7UN3N9CozfSC2wkFFCldkmZ3FgBo0RDziK6uUSjPKuZGDc8o0Jwue8kBZVlnC4VOOACARukahXIN0/O5Fwqg9URkLRRgkQAAcGF92AyGUjl+D2je7fSiuxUKKMYQxsoAgOVwfBCUJx+j74QDaFUa130QCigmAXkKO7MAwHL0oQADpRnCGD2wEJIQKMcYNisAgOXZTjnQnVBAUc+k6VKgec4NgTJ0MW9UOPcXAFhqHtQLB1xdmmK7EQqgdUPYnYUS6JQAAJYs3X9gdBeuy5F7wKJ0Me/OuugFrqPPnkO7sgDAEuVnrQ/CAVdjjB5YnL0EBK7KbawAAC/PW9e0AddhjB5YnM304tsJBVzcMD1/TxYAAADxMOVGo1DAxRmjBxbpJubCDHA5K8k/AMAL62xt0gkHXJQxemCxUnHGbdhwOWPYkQUAOOSYIbgOY/TAYt1KPuCiuizxsCEBADDrY76YshcOuAhj9MCiGaeHy9pNz9ydUAAAvLKVK8FVnjlj9MBiGaeHy+hj7oIwpgIA8Noq5umaQTjg7IzRA4tnnB4uI21C2I0FAHjfGPNU20o44GyGMEYPYJweLmAjwQcA+LS0oTwKBZzNznMG8DLxME4Pp2ckDADga/qYjyDqhAPOskbxjAFM0jj9Tijg5FwiAADwdXdyKDibYXq+9kIB8LxDlHaLjPnC6fThwiUAgO+uUUy2wWntp2drIxQAL1+Mg1DAybhwCQDgeGPMl8No4IDT6EJjFMAr6XIYrfRw2kTehUsAAMez0Qyn5Sg9gDc4fBlOpwsXLgEAnEIfjiaCU3L5MsA7dmE3Fk7BZQEAAKdfp8it4HvWMU+1AeAlCWd7jnRfAwCcRhfzNI7LYuB4mqEAfiK11Q9CAV+2ypL2UTgAAE4m3Yng/HY4ThcaOAB+agxjKnCsdJD5g1AAAJzcPlwaA9b6AGfUhV0kOEafPTu9cAAAnNxNlm+5OAa+5smzA/A52+mFuRUK+JRVzMdQOK8HAOB8xjBSD181hMk2gE/rJRsgQQcAKJANafi6dAzFKBQAn5OSDbc+wseMdAEAXFYfjjCCrz4vmjgAvmAIrfbwGS4BAAC4vPzSS8UeeN8uHJUHcJR0OPMgFPCmMey+AgBcg5F6+LkuXK4McLRxeoHuhQJeMUIPAHBdfRiph4+4WBngG1Yxd41KNOAlI/QAANdnpB7e1oWNA4BvG6cX6Z1QwKvnwgg9AMB15SP1NqxhtrWWB/i+LuwyQa4PI/QAAPIzsI4HWAQ7TfBMRwIAQJnGMNED1vAAZ9CF3SaIcIYVAEDJ0hnwikFYv1u/A5yUHSeWbi3BAAAo2k3Ml8duhANrdwBOJb+h3rk9LPnzfyscAADF2sS8mX0jHCxMF5o5AM5mjHmMGJbkbvrs74UCAKB4u3D8Ecv+7OsWBTiDvGtuEA4WYoz5IH9dBwAAdaxb0oWZW+FgIfqYu0U74QA4jzSa4rZHlpZcDMIBACCPg0KlKTebAQBnlnZfR6GgYXmHtOQCAKA+Y5j8YRmG0MAEcDH57dydcNCo/FxRyQUAgJwOSpQ3dIzCAXDZBGMnFDRoDN0FAAAtyM8btXahRbfhkmSAi+ti7hpdCwcNyTuiB+EAAKjeTZbfjcJBo5/tXjgALmuMeWfKWAqtJBbOFQUAaM8QCki0xyQnwBXlYym3wkEDn+d9zGdQAQDQlm04Lol2bLLPcyccANeRjx1LLqjZLtzkCADQunwjXM5HrbqYJ902wgFwXbvQZUfd0oHlCvwAAG3Lb/A2fkyt0gj9nVAAlJVcjMJBZYZw2RIAwJI4V56abUJTB0BxjNRToz773DonFwBgOYawOU59utCUBFCsNFLvlnpqoFMAAGDZxpiLo2vhoAJG6AEKlo/UKzRRy2fVwfsAAMvlpnpqMYZb6AGK14ddV8q2CreRAgAwS114iqPUsM4ehAOgbKPEgkLlRVE7rQAAHOaINs4p8fP5MH0+d8IBUAeJBSV/LhXtAQDI5cUnaxhKkjqa3eUBUFli4bxRSuL8KAAAPpJfzqk4SglGaxiAevUxn4OyEQ6uaJt9FiUUAAC857A4CteyDueKAlRvk73Me+HgCrYSCgAAviAvjpp+w2cQgG8xwsy1P3uKogAAfIXCFNdyeBkYAA1IL3YHRnOpZEJRFACA7xiyfFJxFGtnAI52uOvlBc8lPmtPoSgKAMDxhlAc5XJMWwI0zEHmnNthUVQyAQDAdw0xF0d3ocmD88gn3nrhAGiTs3o4F0VRAADOpY+XTR6Ko5ySY8AAFpZUGEfhlPKCu6IoAADnzjkVRzmVMRRFARZnCMVRzpOgdkICAIDckwqMoSgKsFhDKI5yus+QXXsAAC7BtBKnYHweAMVRjrYJh+ADAHAdh+fb90LCFyiKAvD/htD1x/GJhII6AADXkBdHFbj47GdGURSAV/pwkDmfSyTuskRiIyQAAFyZTXs+u5ZRSAfgXflZPQ/hrB5efz7ycaW1kAAAUIgx5oLXXWj04OO1TC8kAHzmB4biFzF9DhTNAQAo2SBnxVoGgO86HDEwLr1sYziDFgCAOtzEc/ErNXoMQmItYy0DwDHys3rcOr48h+eJ3goJAAAV5rFbaxmfASEB4BibeLnDZuxgGfqYx03stAMAUKPRWsZaxloGgO/KL2UyWt++WwkkAACN6ONlkcxaxloGAL7scBTBTY/tyS/eMnIEAECraxnHhLW/lrn1PQbgHPLRerfWt2P0fQUAQM6L7ysAfOxwN+4uIjphaeZ7aWcVAICl5L87a5lq9RHxEDqBAbiSMV7uzI1CUo3VG98/5y0BALDUtYxcuK61zDZ0iQJQgJt4eV7PQzzv3FGuIeysAgDAYffo3lqmeGO8vBjYWaIAFGE4+AF1F24ALE0fr4vYdlYBAFi6zcFaZhvG60tcbz5YbwJQssPxbElFGbp4PWoyhp1VAADI1zJy5vL08bq5YxAWAErWHSQVCqTXS+5ufR8AAODT+nhZiFMg9X0AgKN0Bz/M0nmWvdCcVercdbQBAAAcZx0vR7cV5i6jf2MN6RxRAKp2E687SPfxPALhB9zpdFOcDwuivdAAAMBRhni7QNoJzcnjfFgQNe0GQFO6eF24e5r+mW7G4/XxuvCsIAoAAKczxMsC6e/WMd+2iueLrx7eWB92wgPAkn4ApoO0byUXn47hEM+dtwqiAABwGet43dloGu5r+njd2OGoAgAW/UPxKd4ukvZC9MLNO/GyqwoAAJfPyw+Le1trmDd18Vz4PGyOSUVlAFi8IZ4vZ/r9jQRjF89dpt1Ck67beLvDdhN2VQEA4Fp+Ng3XLzg2N/FcDN3H2wVkk4IA8I719MPyMMFISUYqlLb4w3T1wddvFxoAAMr03nRXyuGHaLvRo5u+xvfWcbvQHQpQrX8RgqsmGH1E/GX6/a0OyfuI+CUifp1+PVb09a0Ovr7DYu+PiPjfiPj79DsAAFC2dUT8dcrvu4N/9zitX36b1i73FX59q2yd9p/Tn7t31jG/TL//8LEAqJfCaDk+Uyj9EXOR9LfszyXopq/hvUJoZAnS3ytNlAAAgHn9ss7y/7c8ZmuX++nPpRQSu+lXH+8XQZP7mAuhv/rWA7RDYbRc3fTDORUbb+L9czdTgfQfWbJxf+YkKP3/+yiJ+DVLIu7DbioAALSqz9Yuaa3wlsfpV5qMe4zzFhvTOqqPiD/HXAyNn6yt8mIuAI1SGK1LSjDyhKP7yX/z450f5r984e/9S/b3f/T33WcJzn0ohAIAwJL18bKZ4qO7FB6zX//I1hc/szr4301rl48aS/L1S95gcu9bBrAsCqP1W2VJxp+zBOCcFziVPNIPAACUK61d8smz7ox/32PMXan/jOfiZ/pnACycwmj73ko0vlo4zc8CuhdSAADgxPqD3//0hTVLKnrma5fHUPwEAAAAAAAAAAAAAAAAAAAAAAAAAAAAAAAAAAAAAAAAAAAAAAAAAAAAAAAAAAAAAAAAAAAAAAAAAAAAAAAAAAAAAAAAAAAAAAAAAAAAAAAAAAAAAAAAAAAAAAAAAAAAAAAAAAAAAAAAAAAAAAAAAAAAAAAAAAAAAAAAAAAAAAAAAAAAAAAAAAAAAAAAAAAAAAAAAAAAAAAAAAAAAAAAAAAAAAAAAAAAAAAAAAAAAAAAAAAAAFiA/wOdYdH8hVvICQAAAABJRU5ErkJggg==;" parent="1" vertex="1">
                    <mxGeometry x="-240" y="206" width="678" height="401.28" as="geometry"/>
                </mxCell>
                <mxCell id="3" value="Swerve Drive" style="rounded=1;whiteSpace=wrap;html=1;labelBorderColor=none;strokeColor=#FFFFFF;fontColor=#FF8000;" parent="1" vertex="1">
                    <mxGeometry x="-130" y="569" width="120" height="60" as="geometry"/>
                </mxCell>
                <mxCell id="4" style="edgeStyle=none;html=1;entryX=0.365;entryY=0.752;entryDx=0;entryDy=0;entryPerimeter=0;strokeColor=#000000;" parent="1" source="3" edge="1">
                    <mxGeometry relative="1" as="geometry">
                        <mxPoint x="-40.200000000000045" y="489.8879999999999" as="targetPoint"/>
                    </mxGeometry>
                </mxCell>
                <mxCell id="7" style="edgeStyle=none;html=1;entryX=0.635;entryY=0.784;entryDx=0;entryDy=0;entryPerimeter=0;strokeColor=#000000;" parent="1" source="6" edge="1">
                    <mxGeometry relative="1" as="geometry">
                        <mxPoint x="100.20000000000005" y="500.096" as="targetPoint"/>
                    </mxGeometry>
                </mxCell>
                <mxCell id="6" value="Swerve Drive Rotation" style="rounded=1;whiteSpace=wrap;html=1;labelBorderColor=none;strokeColor=#FFFFFF;fontColor=#FF8000;" parent="1" vertex="1">
                    <mxGeometry x="50" y="569" width="120" height="60" as="geometry"/>
                </mxCell>
                <mxCell id="21" style="edgeStyle=none;html=1;entryX=0.196;entryY=-0.016;entryDx=0;entryDy=0;entryPerimeter=0;strokeColor=#000000;" parent="1" source="20" edge="1">
                    <mxGeometry relative="1" as="geometry">
                        <mxPoint x="-128.07999999999993" y="244.89599999999996" as="targetPoint"/>
                    </mxGeometry>
                </mxCell>
                <mxCell id="20" value="(Bumper) SwerveDrive Reset Forward" style="rounded=1;whiteSpace=wrap;html=1;fontColor=#FF8000;strokeColor=#000000;" parent="1" vertex="1">
                    <mxGeometry x="-189" y="126" width="120" height="60" as="geometry"/>
                </mxCell>
                <mxCell id="24" value="&lt;font size=&quot;1&quot; color=&quot;#ff8000&quot;&gt;&lt;b style=&quot;font-size: 38px&quot;&gt;&lt;u&gt;Driver Control&lt;/u&gt;&lt;/b&gt;&lt;/font&gt;" style="text;html=1;resizable=0;autosize=1;align=center;verticalAlign=middle;points=[];fillColor=none;strokeColor=none;rounded=0;" parent="1" vertex="1">
                    <mxGeometry x="-105" y="15" width="270" height="30" as="geometry"/>
                </mxCell>
                <mxCell id="49" value="Swerve Drive Rotation" style="rounded=1;whiteSpace=wrap;html=1;labelBorderColor=none;strokeColor=#FFFFFF;fontColor=#FF8000;" parent="1" vertex="1">
                    <mxGeometry x="50" y="569" width="120" height="60" as="geometry"/>
                </mxCell>
                <mxCell id="50" value="Swerve Drive" style="rounded=1;whiteSpace=wrap;html=1;labelBorderColor=none;strokeColor=#FFFFFF;fontColor=#FF8000;" parent="1" vertex="1">
                    <mxGeometry x="-130" y="569" width="120" height="60" as="geometry"/>
                </mxCell>
                <mxCell id="53" value="Swerve Drive Rotation" style="rounded=1;whiteSpace=wrap;html=1;labelBorderColor=none;strokeColor=#000000;fontColor=#FF8000;" parent="1" vertex="1">
                    <mxGeometry x="50" y="569" width="120" height="60" as="geometry"/>
                </mxCell>
                <mxCell id="54" value="Swerve Drive" style="rounded=1;whiteSpace=wrap;html=1;labelBorderColor=none;strokeColor=#000000;fontColor=#FF8000;" parent="1" vertex="1">
                    <mxGeometry x="-130" y="569" width="120" height="60" as="geometry"/>
                </mxCell>
                <mxCell id="70" value="Driver Control v0.1" style="text;html=1;strokeColor=none;fillColor=none;align=center;verticalAlign=middle;whiteSpace=wrap;rounded=0;dashed=1;fontColor=#000000;" parent="1" vertex="1">
                    <mxGeometry x="-62" y="712" width="184" height="30" as="geometry"/>
                </mxCell>
                <mxCell id="71" style="edgeStyle=none;html=1;strokeColor=#000000;" parent="1" source="72" edge="1">
                    <mxGeometry relative="1" as="geometry">
                        <mxPoint x="218" y="249" as="targetPoint"/>
                    </mxGeometry>
                </mxCell>
                <mxCell id="72" value="&lt;span style=&quot;color: rgb(255, 128, 0);&quot;&gt;&amp;lt;Trigger&amp;gt;&lt;/span&gt;&lt;br style=&quot;color: rgb(255, 128, 0);&quot;&gt;&lt;span style=&quot;color: rgb(255, 128, 0);&quot;&gt;Run Feeder&lt;/span&gt;&lt;br style=&quot;color: rgb(255, 128, 0);&quot;&gt;&lt;span style=&quot;color: rgb(255, 128, 0);&quot;&gt;(while pressed)&lt;/span&gt;&lt;font color=&quot;#ff8000&quot;&gt;&lt;br&gt;&lt;/font&gt;" style="rounded=1;whiteSpace=wrap;html=1;fontColor=#910000;" parent="1" vertex="1">
                    <mxGeometry x="254" y="99" width="120" height="60" as="geometry"/>
                </mxCell>
                <mxCell id="73" style="edgeStyle=none;html=1;fontSize=24;strokeColor=#000000;entryX=0.806;entryY=-0.016;entryDx=0;entryDy=0;entryPerimeter=0;" parent="1" source="74" edge="1">
                    <mxGeometry relative="1" as="geometry">
                        <mxPoint x="187.1199999999999" y="240.89599999999996" as="targetPoint"/>
                    </mxGeometry>
                </mxCell>
                <mxCell id="74" value="&lt;font&gt;(Bumper)&lt;br&gt;Intake/Feed until Beam Break is true&amp;nbsp;&lt;/font&gt;" style="rounded=1;whiteSpace=wrap;html=1;fontColor=#FF8000;" parent="1" vertex="1">
                    <mxGeometry x="124" y="126" width="120" height="60" as="geometry"/>
                </mxCell>
                <mxCell id="75" value="Climber Down" style="rounded=1;whiteSpace=wrap;html=1;fontColor=#FF8000;" parent="1" vertex="1">
                    <mxGeometry x="320" y="450" width="120" height="60" as="geometry"/>
                </mxCell>
                <mxCell id="77" style="edgeStyle=none;html=1;entryX=0.84;entryY=-0.003;entryDx=0;entryDy=0;strokeColor=#000000;entryPerimeter=0;exitX=0;exitY=0.5;exitDx=0;exitDy=0;" parent="1" source="75" edge="1">
                    <mxGeometry relative="1" as="geometry">
                        <mxPoint x="196.99999999999994" y="415.523" as="targetPoint"/>
                        <mxPoint x="277.2" y="403.4855634807418" as="sourcePoint"/>
                    </mxGeometry>
                </mxCell>
                <mxCell id="78" value="Brake" style="rounded=1;whiteSpace=wrap;html=1;fontColor=#FF8000;" parent="1" vertex="1">
                    <mxGeometry x="318" y="372" width="120" height="60" as="geometry"/>
                </mxCell>
                <mxCell id="80" style="edgeStyle=none;html=1;entryX=0.84;entryY=-0.003;entryDx=0;entryDy=0;strokeColor=#000000;entryPerimeter=0;exitX=0;exitY=0.5;exitDx=0;exitDy=0;" parent="1" source="78" edge="1">
                    <mxGeometry relative="1" as="geometry">
                        <mxPoint x="232.99999999999994" y="375.033" as="targetPoint"/>
                        <mxPoint x="313.2" y="362.9955634807418" as="sourcePoint"/>
                    </mxGeometry>
                </mxCell>
                <mxCell id="81" value="POV 0&lt;br&gt;forward straight 1/2pwr" style="rounded=1;whiteSpace=wrap;html=1;fontColor=#FF8000;strokeColor=#000000;" parent="1" vertex="1">
                    <mxGeometry x="-386" y="274" width="120" height="60" as="geometry"/>
                </mxCell>
                <mxCell id="83" value="POV 180&lt;br&gt;reverse straight 1/2pwr" style="rounded=1;whiteSpace=wrap;html=1;fontColor=#FF8000;strokeColor=#000000;" parent="1" vertex="1">
                    <mxGeometry x="-386" y="428" width="120" height="60" as="geometry"/>
                </mxCell>
                <mxCell id="84" style="edgeStyle=none;html=1;strokeColor=#001DBC;exitX=1;exitY=0.5;exitDx=0;exitDy=0;fillColor=#0050ef;strokeWidth=3;entryX=0.156;entryY=0.541;entryDx=0;entryDy=0;entryPerimeter=0;" parent="1" source="83" target="91" edge="1">
                    <mxGeometry relative="1" as="geometry">
                        <mxPoint x="-226" y="356" as="sourcePoint"/>
                        <mxPoint x="-123.75999999999999" y="425.91599999999994" as="targetPoint"/>
                    </mxGeometry>
                </mxCell>
                <mxCell id="85" value="&amp;lt;Press Down&amp;gt;&lt;br&gt;Note/April Tag tracking" style="rounded=1;whiteSpace=wrap;html=1;labelBorderColor=none;strokeColor=#000000;fontColor=#FF8000;" parent="1" vertex="1">
                    <mxGeometry x="-22" y="204" width="120" height="60" as="geometry"/>
                </mxCell>
                <mxCell id="87" style="edgeStyle=none;html=1;strokeColor=#000000;strokeWidth=1;exitX=0.75;exitY=1;exitDx=0;exitDy=0;" parent="1" source="85" edge="1">
                    <mxGeometry relative="1" as="geometry">
                        <mxPoint x="260" y="581" as="sourcePoint"/>
                        <mxPoint x="80" y="311" as="targetPoint"/>
                    </mxGeometry>
                </mxCell>
                <mxCell id="89" style="edgeStyle=none;html=1;entryX=0.45;entryY=0.017;entryDx=0;entryDy=0;dashed=1;strokeColor=#000000;endArrow=none;endFill=0;entryPerimeter=0;" parent="1" source="88" target="85" edge="1">
                    <mxGeometry relative="1" as="geometry"/>
                </mxCell>
                <mxCell id="88" value="If Beam Break is true then track April Tags&lt;br&gt;&lt;br&gt;If Beam Break is false then track Notes" style="text;html=1;strokeColor=#000000;fillColor=none;align=center;verticalAlign=middle;whiteSpace=wrap;rounded=0;fontColor=#000000;dashed=1;" parent="1" vertex="1">
                    <mxGeometry x="-51.5" y="91" width="163" height="91" as="geometry"/>
                </mxCell>
                <mxCell id="82" style="edgeStyle=none;html=1;strokeColor=#001DBC;exitX=1;exitY=0.5;exitDx=0;exitDy=0;fillColor=#0050ef;strokeWidth=3;entryX=0.136;entryY=0.279;entryDx=0;entryDy=0;entryPerimeter=0;" parent="1" source="81" target="91" edge="1">
                    <mxGeometry relative="1" as="geometry">
                        <mxPoint x="-127.00152280437231" y="278" as="sourcePoint"/>
                        <mxPoint x="-125.75999999999993" y="332.89599999999996" as="targetPoint"/>
                    </mxGeometry>
                </mxCell>
                <mxCell id="93" style="edgeStyle=none;html=1;entryX=0.6;entryY=0.384;entryDx=0;entryDy=0;entryPerimeter=0;strokeColor=#001DBC;fillColor=#0050ef;strokeWidth=2;" parent="1" source="92" target="91" edge="1">
                    <mxGeometry relative="1" as="geometry"/>
                </mxCell>
                <mxCell id="92" value="&lt;font color=&quot;#ff8000&quot;&gt;&amp;lt;X&amp;gt;&lt;br&gt;Note Pickup Drive&lt;br&gt;&lt;/font&gt;" style="rounded=1;whiteSpace=wrap;html=1;fontColor=#910000;" parent="1" vertex="1">
                    <mxGeometry x="316" y="280" width="120" height="60" as="geometry"/>
                </mxCell>
                <mxCell id="94" style="edgeStyle=none;html=1;entryX=0.84;entryY=-0.003;entryDx=0;entryDy=0;strokeColor=#000000;entryPerimeter=0;exitX=0.82;exitY=0.085;exitDx=0;exitDy=0;exitPerimeter=0;" parent="1" source="91" edge="1">
                    <mxGeometry relative="1" as="geometry">
                        <mxPoint x="197" y="310.00300000000016" as="targetPoint"/>
                        <mxPoint x="318" y="161" as="sourcePoint"/>
                    </mxGeometry>
                </mxCell>
                <mxCell id="95" value="Climber Up" style="rounded=1;whiteSpace=wrap;html=1;fontColor=#FF8000;" parent="1" vertex="1">
                    <mxGeometry x="320" y="209" width="120" height="60" as="geometry"/>
                </mxCell>
                <mxCell id="96" value="&lt;div style=&quot;text-align: left;&quot;&gt;&lt;span style=&quot;background-color: initial;&quot;&gt;If&lt;/span&gt;&lt;/div&gt;&lt;div style=&quot;text-align: left;&quot;&gt;&lt;span style=&quot;background-color: initial;&quot;&gt;&amp;nbsp; &amp;nbsp; AutoAim is true&lt;/span&gt;&lt;/div&gt;&lt;div style=&quot;text-align: left;&quot;&gt;&lt;span style=&quot;background-color: initial;&quot;&gt;&amp;nbsp; &amp;nbsp; Have a Note&lt;/span&gt;&lt;/div&gt;&lt;div style=&quot;text-align: left;&quot;&gt;&lt;span style=&quot;background-color: initial;&quot;&gt;&amp;nbsp; &amp;nbsp; Within Tag Range&lt;/span&gt;&lt;/div&gt;&lt;div style=&quot;text-align: left;&quot;&gt;&lt;span style=&quot;background-color: initial;&quot;&gt;Then&lt;/span&gt;&lt;/div&gt;&lt;div style=&quot;text-align: left;&quot;&gt;&lt;span style=&quot;background-color: initial;&quot;&gt;&amp;nbsp; &amp;nbsp; AutoAimCommand&lt;/span&gt;&lt;/div&gt;&lt;div style=&quot;text-align: left;&quot;&gt;&lt;span style=&quot;background-color: initial;&quot;&gt;&amp;nbsp; &amp;nbsp; (Adjust Wrist, Climber, Shooter)&lt;/span&gt;&lt;/div&gt;" style="text;html=1;strokeColor=#000000;fillColor=none;align=center;verticalAlign=middle;whiteSpace=wrap;rounded=0;fontColor=#000000;dashed=1;" vertex="1" parent="1">
                    <mxGeometry x="292" y="581.72" width="234" height="130.28" as="geometry"/>
                </mxCell>
            </root>
        </mxGraphModel>
    </diagram>
</mxfile>